<svg width="28" height="28" viewBox="0 0 28 28" fill="none" xmlns="http://www.w3.org/2000/svg">
<path d="M3.91999 1.67974C3.77148 1.67976 3.62905 1.73876 3.52403 1.84378C3.41901 1.9488 3.36001 2.09123 3.35999 2.23974V4.30256C3.35986 4.32963 3.36168 4.35668 3.36546 4.38349L5.59234 19.5943C5.59117 19.7395 5.64646 19.8795 5.74655 19.9847L8.39999 23.7002V25.7597C8.40001 25.9083 8.45901 26.0507 8.56403 26.1557C8.66905 26.2607 8.81148 26.3197 8.95999 26.3197H12.32C12.4685 26.3197 12.6109 26.2607 12.716 26.1557C12.821 26.0507 12.88 25.9083 12.88 25.7597V23.6893L15.3748 19.976C15.4739 19.8672 15.5261 19.7238 15.5203 19.5768L17.3556 4.36927C17.3584 4.34714 17.3599 4.32486 17.36 4.30256V2.23974C17.36 2.09123 17.301 1.9488 17.196 1.84378C17.0909 1.73876 16.9485 1.67976 16.8 1.67974H3.91999ZM21.28 1.67974C21.2058 1.67869 21.1321 1.6924 21.0632 1.72008C20.9944 1.74775 20.9317 1.78883 20.8789 1.84093C20.826 1.89304 20.7841 1.95513 20.7554 2.02359C20.7268 2.09206 20.712 2.16553 20.712 2.23974C20.712 2.31396 20.7268 2.38743 20.7554 2.4559C20.7841 2.52436 20.826 2.58645 20.8789 2.63855C20.9317 2.69066 20.9944 2.73174 21.0632 2.75941C21.1321 2.78708 21.2058 2.80079 21.28 2.79974H23.52V3.91974H21.28C21.2058 3.91869 21.1321 3.9324 21.0632 3.96008C20.9944 3.98775 20.9317 4.02883 20.8789 4.08093C20.826 4.13304 20.7841 4.19513 20.7554 4.26359C20.7268 4.33206 20.712 4.40553 20.712 4.47974C20.712 4.55396 20.7268 4.62743 20.7554 4.6959C20.7841 4.76436 20.826 4.82645 20.8789 4.87855C20.9317 4.93066 20.9944 4.97174 21.0632 4.99941C21.1321 5.02708 21.2058 5.04079 21.28 5.03974H23.52V6.16084L21.28 6.15974C21.2058 6.15869 21.1321 6.1724 21.0632 6.20008C20.9944 6.22775 20.9317 6.26883 20.8789 6.32093C20.826 6.37304 20.7841 6.43513 20.7554 6.50359C20.7268 6.57206 20.712 6.64553 20.712 6.71974C20.712 6.79396 20.7268 6.86743 20.7554 6.9359C20.7841 7.00436 20.826 7.06645 20.8789 7.11855C20.9317 7.17066 20.9944 7.21174 21.0632 7.23941C21.1321 7.26708 21.2058 7.28079 21.28 7.27974L23.52 7.28084V8.40084L21.28 8.39974C21.2058 8.39869 21.1321 8.4124 21.0632 8.44007C20.9944 8.46775 20.9317 8.50883 20.8789 8.56093C20.826 8.61304 20.7841 8.67513 20.7554 8.74359C20.7268 8.81206 20.712 8.88553 20.712 8.95974C20.712 9.03396 20.7268 9.10743 20.7554 9.1759C20.7841 9.24436 20.826 9.30645 20.8789 9.35855C20.9317 9.41066 20.9944 9.45174 21.0632 9.47941C21.1321 9.50708 21.2058 9.52079 21.28 9.51974L23.4084 9.52084C23.314 10.1581 23.168 10.7866 22.913 11.3813L22.5378 12.2574C22.0772 13.3313 21.84 14.4873 21.84 15.6557V25.7597C21.8389 25.834 21.8527 25.9076 21.8803 25.9765C21.908 26.0453 21.9491 26.108 22.0012 26.1609C22.0533 26.2137 22.1154 26.2557 22.1838 26.2843C22.2523 26.313 22.3258 26.3277 22.4 26.3277C22.4742 26.3277 22.5477 26.313 22.6161 26.2843C22.6846 26.2557 22.7467 26.2137 22.7988 26.1609C22.8509 26.108 22.892 26.0453 22.9197 25.9765C22.9473 25.9076 22.961 25.834 22.96 25.7597V15.6557C22.96 14.6389 23.1663 13.6324 23.567 12.6982L23.9422 11.8221C24.4028 10.7482 24.64 9.59214 24.64 8.42381V2.79974C24.64 2.18763 24.1321 1.67974 23.52 1.67974H21.28ZM4.47999 2.79974H16.24V4.26865L14.4561 19.0397H6.64452L4.47999 4.26099V2.79974ZM6.15999 4.47974C6.01147 4.47974 5.86903 4.53874 5.76401 4.64376C5.65899 4.74878 5.59999 4.89122 5.59999 5.03974C5.59999 5.18826 5.65899 5.3307 5.76401 5.43572C5.86903 5.54074 6.01147 5.59974 6.15999 5.59974C6.30851 5.59974 6.45095 5.54074 6.55597 5.43572C6.66099 5.3307 6.71999 5.18826 6.71999 5.03974C6.71999 4.89122 6.66099 4.74878 6.55597 4.64376C6.45095 4.53874 6.30851 4.47974 6.15999 4.47974ZM7.83999 4.47974C7.69147 4.47974 7.54903 4.53874 7.44401 4.64376C7.33899 4.74878 7.27999 4.89122 7.27999 5.03974C7.27999 5.18826 7.33899 5.3307 7.44401 5.43572C7.54903 5.54074 7.69147 5.59974 7.83999 5.59974C7.98851 5.59974 8.13095 5.54074 8.23597 5.43572C8.34099 5.3307 8.39999 5.18826 8.39999 5.03974C8.39999 4.89122 8.34099 4.74878 8.23597 4.64376C8.13095 4.53874 7.98851 4.47974 7.83999 4.47974ZM9.51999 4.47974C9.37147 4.47974 9.22903 4.53874 9.12401 4.64376C9.01899 4.74878 8.95999 4.89122 8.95999 5.03974C8.95999 5.18826 9.01899 5.3307 9.12401 5.43572C9.22903 5.54074 9.37147 5.59974 9.51999 5.59974C9.66851 5.59974 9.81095 5.54074 9.91597 5.43572C10.021 5.3307 10.08 5.18826 10.08 5.03974C10.08 4.89122 10.021 4.74878 9.91597 4.64376C9.81095 4.53874 9.66851 4.47974 9.51999 4.47974ZM11.2 4.47974C11.0515 4.47974 10.909 4.53874 10.804 4.64376C10.699 4.74878 10.64 4.89122 10.64 5.03974C10.64 5.18826 10.699 5.3307 10.804 5.43572C10.909 5.54074 11.0515 5.59974 11.2 5.59974C11.3485 5.59974 11.491 5.54074 11.596 5.43572C11.701 5.3307 11.76 5.18826 11.76 5.03974C11.76 4.89122 11.701 4.74878 11.596 4.64376C11.491 4.53874 11.3485 4.47974 11.2 4.47974ZM12.88 4.47974C12.7315 4.47974 12.589 4.53874 12.484 4.64376C12.379 4.74878 12.32 4.89122 12.32 5.03974C12.32 5.18826 12.379 5.3307 12.484 5.43572C12.589 5.54074 12.7315 5.59974 12.88 5.59974C13.0285 5.59974 13.171 5.54074 13.276 5.43572C13.381 5.3307 13.44 5.18826 13.44 5.03974C13.44 4.89122 13.381 4.74878 13.276 4.64376C13.171 4.53874 13.0285 4.47974 12.88 4.47974ZM14.56 4.47974C14.4115 4.47974 14.269 4.53874 14.164 4.64376C14.059 4.74878 14 4.89122 14 5.03974C14 5.18826 14.059 5.3307 14.164 5.43572C14.269 5.54074 14.4115 5.59974 14.56 5.59974C14.7085 5.59974 14.851 5.54074 14.956 5.43572C15.061 5.3307 15.12 5.18826 15.12 5.03974C15.12 4.89122 15.061 4.74878 14.956 4.64376C14.851 4.53874 14.7085 4.47974 14.56 4.47974ZM10.0155 8.39974C8.41778 8.39974 7.25868 9.53346 7.25812 11.0947C7.25812 11.7779 7.53179 12.2682 7.73171 12.626C7.83475 12.8097 7.91561 12.955 7.95593 13.1051C7.99681 13.2579 8.03221 13.4191 8.06749 13.5776C8.20021 14.1784 8.33877 14.799 8.75765 15.2291C9.04101 15.5192 9.41448 15.6797 9.80984 15.6797C10.0938 15.6797 10.3794 15.6019 10.6258 15.4479C10.8643 15.5991 11.146 15.6797 11.445 15.6797C12.7246 15.6797 13.0159 14.3622 13.1895 13.5754C13.2242 13.4174 13.2602 13.2574 13.3011 13.1051C13.3414 12.955 13.4223 12.8102 13.5253 12.626C13.7258 12.2682 13.9995 11.7768 13.9989 11.0936C14.0017 10.3606 13.7415 9.68594 13.2661 9.19818C12.7649 8.68354 12.0478 8.39974 11.2459 8.39974H11.2437C11.0309 8.39974 10.8261 8.41961 10.6301 8.45881C10.4341 8.41961 10.2283 8.39974 10.0155 8.39974ZM10.0155 9.51974C10.2479 9.51974 10.4532 9.55383 10.6301 9.61599C10.8071 9.55383 11.0119 9.51974 11.2437 9.51974H11.2459C11.7656 9.51974 12.1827 9.68904 12.4655 9.97912C12.7348 10.2552 12.8817 10.6417 12.88 11.0947C12.8806 11.7679 12.4025 12.136 12.2194 12.8141C12.0116 13.5886 11.9299 14.5597 11.4472 14.5597H11.4461C11.3296 14.5597 11.2355 14.5236 11.1672 14.4536C11.0832 14.3674 11.0381 14.2311 11.0381 14.0446C11.0387 13.5753 10.9458 13.039 10.8489 12.5199C10.8394 12.4689 10.8179 12.4293 10.7887 12.3996C10.7462 12.3559 10.6873 12.334 10.6291 12.334C10.5305 12.334 10.4327 12.3961 10.4092 12.521C10.3123 13.0401 10.22 13.5747 10.22 14.0446C10.22 14.3839 10.0708 14.5608 9.81093 14.5608C9.71181 14.5608 9.62937 14.5199 9.55937 14.4482C9.28889 14.1704 9.2045 13.4312 9.03874 12.8152C8.85618 12.1371 8.37812 11.769 8.37812 11.0958C8.37868 10.1646 9.0013 9.51974 10.0155 9.51974ZM7.24827 20.1597H13.9016L12.0225 22.9597H9.24765L7.24827 20.1597ZM9.51999 24.0808H11.76V25.1997H9.51999V24.0808Z" fill="#A1A1A1"/>
</svg>
