<svg width="28" height="28" viewBox="0 0 28 28" fill="none" xmlns="http://www.w3.org/2000/svg">
<g clip-path="url(#clip0_469_17789)">
<path d="M6.16003 0C4.94596 0 3.92878 0.30625 3.23753 0.9975C2.54628 1.68875 2.24003 2.70594 2.24003 3.92V4.48H0.560026C0.542526 4.48 0.525026 4.48 0.507526 4.48C0.199088 4.49531 -0.0415368 4.75781 -0.0262243 5.06625C-0.0109118 5.37469 0.251588 5.61531 0.560026 5.6H2.24003V16.135C2.22471 16.2094 2.22471 16.2881 2.24003 16.3625V19.495C2.22471 19.5694 2.22471 19.6481 2.24003 19.7225V22.96C2.24003 23.2684 2.49159 23.52 2.80003 23.52H5.60003V27.44C5.60003 27.7484 5.85159 28 6.16003 28H24.08C24.3885 28 24.64 27.7484 24.64 27.44V6.2475C24.6422 6.21906 24.6422 6.18844 24.64 6.16V5.6H27.44C27.6413 5.60219 27.8294 5.49719 27.9322 5.32219C28.0328 5.14719 28.0328 4.93281 27.9322 4.75781C27.8294 4.58281 27.6413 4.47781 27.44 4.48H24.64V3.92C24.64 2.765 24.2725 1.76531 23.5725 1.0675C22.8725 0.369687 21.8707 0 20.72 0H6.16003ZM6.16003 1.12H20.72C21.6388 1.12 22.3213 1.39344 22.785 1.855C23.0366 2.10656 23.2182 2.43469 23.345 2.8175C22.8572 2.44563 22.3191 2.24 21.84 2.24C21.2757 2.24 20.521 2.39313 19.95 3.01C19.3791 3.62688 19.04 4.62219 19.04 6.16V14.6125C18.5325 14.7219 18.0907 14.9647 17.675 15.1725C17.115 15.4525 16.6141 15.68 16.24 15.68C15.866 15.68 15.365 15.4525 14.805 15.1725C14.245 14.8925 13.626 14.56 12.88 14.56C12.1341 14.56 11.515 14.8925 10.955 15.1725C10.395 15.4525 9.89409 15.68 9.52003 15.68C9.14596 15.68 8.64503 15.4525 8.08503 15.1725C7.52503 14.8925 6.90596 14.56 6.16003 14.56C5.41409 14.56 4.79503 14.8925 4.23503 15.1725C3.92003 15.33 3.6269 15.4809 3.36003 15.575V5.145C3.37534 5.07063 3.37534 4.99188 3.36003 4.9175V3.92C3.36003 2.89406 3.61378 2.23125 4.04253 1.8025C4.47128 1.37375 5.13409 1.12 6.16003 1.12ZM21.84 3.36C22.1857 3.36 22.5641 3.46063 22.89 3.8325C23.0235 3.98563 23.1503 4.20219 23.2575 4.48H20.3875C20.4969 4.1475 20.6303 3.91563 20.7725 3.7625C21.0832 3.42781 21.455 3.36 21.84 3.36ZM20.1775 5.6H23.485C23.5003 5.77281 23.52 5.95875 23.52 6.16C23.52 6.1775 23.52 6.195 23.52 6.2125V26.88H6.72003V23.52H19.6C19.9085 23.52 20.16 23.2684 20.16 22.96V18.585C20.1753 18.5106 20.1753 18.4319 20.16 18.3575V15.225C20.1753 15.1506 20.1753 15.0719 20.16 14.9975V6.16C20.16 5.96094 20.1666 5.77281 20.1775 5.6ZM6.16003 15.68C6.53409 15.68 7.03503 15.9075 7.59503 16.1875C8.15503 16.4675 8.77409 16.8 9.52003 16.8C10.266 16.8 10.885 16.4675 11.445 16.1875C12.005 15.9075 12.506 15.68 12.88 15.68C13.2541 15.68 13.755 15.9075 14.315 16.1875C14.875 16.4675 15.4941 16.8 16.24 16.8C16.986 16.8 17.605 16.4675 18.165 16.1875C18.48 16.03 18.7732 15.8791 19.04 15.785V17.9725C18.5325 18.0819 18.0907 18.3247 17.675 18.5325C17.115 18.8125 16.6141 19.04 16.24 19.04C15.866 19.04 15.365 18.8125 14.805 18.5325C14.245 18.2525 13.626 17.92 12.88 17.92C12.1341 17.92 11.515 18.2525 10.955 18.5325C10.395 18.8125 9.89409 19.04 9.52003 19.04C9.14596 19.04 8.64503 18.8125 8.08503 18.5325C7.52503 18.2525 6.90596 17.92 6.16003 17.92C5.41409 17.92 4.79503 18.2525 4.23503 18.5325C3.92003 18.69 3.6269 18.8409 3.36003 18.935V16.7475C3.86753 16.6381 4.3094 16.3953 4.72503 16.1875C5.28503 15.9075 5.78596 15.68 6.16003 15.68ZM6.16003 19.04C6.53409 19.04 7.03503 19.2675 7.59503 19.5475C8.15503 19.8275 8.77409 20.16 9.52003 20.16C10.266 20.16 10.885 19.8275 11.445 19.5475C12.005 19.2675 12.506 19.04 12.88 19.04C13.2541 19.04 13.755 19.2675 14.315 19.5475C14.875 19.8275 15.4941 20.16 16.24 20.16C16.986 20.16 17.605 19.8275 18.165 19.5475C18.48 19.39 18.7732 19.2391 19.04 19.145V22.4H3.36003V20.1075C3.86753 19.9981 4.3094 19.7553 4.72503 19.5475C5.28503 19.2675 5.78596 19.04 6.16003 19.04Z" fill="#A1A1A1"/>
</g>
<defs>
<clipPath id="clip0_469_17789">
<rect width="28" height="28" fill="white"/>
</clipPath>
</defs>
</svg>
