<svg width="28" height="28" viewBox="0 0 28 28" fill="none" xmlns="http://www.w3.org/2000/svg">
<path d="M23.52 1.11914C19.1407 1.11914 15.9447 3.5606 15.4962 3.91914H14.56C14.56 2.99796 13.8012 2.23914 12.88 2.23914C11.9588 2.23914 11.2 2.99796 11.2 3.91914V5.59914C11.2 5.74766 11.259 5.89009 11.364 5.9951C11.469 6.10012 11.6115 6.15913 11.76 6.15914H12.32V7.27914H10.64C10.4915 7.27916 10.349 7.33816 10.244 7.44318C10.139 7.54819 10.08 7.69062 10.08 7.83914V12.8923C10.0436 12.9 10.008 12.9114 9.97389 12.9262C7.4333 14.0342 5.6506 16.5506 5.60436 19.4832C5.58888 19.5571 5.58851 19.6334 5.60326 19.7074C5.641 22.2244 6.9822 24.4065 8.95998 25.6837V26.3191C8.96 26.4677 9.019 26.6101 9.12402 26.7151C9.22904 26.8201 9.37147 26.8791 9.51998 26.8791H16.24C16.3885 26.8791 16.5309 26.8201 16.6359 26.7151C16.741 26.6101 16.8 26.4677 16.8 26.3191V25.6837C18.7762 24.4071 20.1171 22.2276 20.1567 19.7129C20.1718 19.6381 20.1714 19.5611 20.1556 19.4865C20.1107 16.5524 18.3282 14.0346 15.7861 12.9262C15.7519 12.9114 15.7164 12.9 15.68 12.8923V7.83914C15.68 7.69062 15.621 7.54819 15.5159 7.44318C15.4109 7.33816 15.2685 7.27916 15.12 7.27914H13.44V6.15914H14C14.1485 6.15913 14.2909 6.10012 14.3959 5.9951C14.501 5.89009 14.56 5.74766 14.56 5.59914V5.03914H15.4962C15.9447 5.39768 19.1407 7.83914 23.52 7.83914C25.3689 7.83914 26.88 6.32805 26.88 4.47914C26.88 2.63023 25.3689 1.11914 23.52 1.11914ZM23.52 2.23914C24.7634 2.23914 25.76 3.23573 25.76 4.47914C25.76 5.72255 24.7634 6.71914 23.52 6.71914C19.9576 6.71914 17.5571 5.08467 16.7311 4.47914C17.5571 3.87361 19.9576 2.23914 23.52 2.23914ZM12.88 3.35914C13.1964 3.35914 13.44 3.60272 13.44 3.91914V5.03914H12.32V3.91914C12.32 3.60272 12.5636 3.35914 12.88 3.35914ZM11.2 8.39914H14.56V12.8791H12.4064C12.3749 12.8739 12.3431 12.8713 12.3112 12.8715C12.2841 12.8721 12.2571 12.8746 12.2303 12.8791H11.2V8.39914ZM10.3458 13.9991H10.64H11.7217C11.6037 14.9092 11.2037 15.5041 10.734 16.2085C10.2447 16.9426 9.68436 17.8006 9.55061 19.0391H6.74842C6.95259 16.7835 8.3741 14.8935 10.3458 13.9991ZM12.8494 13.9991H15.12H15.4131C17.3853 14.8935 18.8073 16.7835 19.0115 19.0391H10.6783C10.7963 18.1291 11.1963 17.5342 11.6659 16.8298C12.1553 16.0957 12.7156 15.2377 12.8494 13.9991ZM6.74842 20.1591H9.54733C9.81579 22.9166 11.9842 24.5276 11.9842 24.5276C12.0431 24.5717 12.1101 24.6037 12.1814 24.6219C12.2527 24.6401 12.3268 24.6441 12.3996 24.6337C12.4725 24.6232 12.5425 24.5985 12.6058 24.561C12.6691 24.5234 12.7243 24.4738 12.7684 24.4149C12.8125 24.356 12.8446 24.289 12.8628 24.2178C12.881 24.1465 12.885 24.0723 12.8745 23.9995C12.864 23.9267 12.8393 23.8566 12.8018 23.7933C12.7643 23.7301 12.7147 23.6748 12.6558 23.6307C12.6558 23.6307 10.9436 22.3255 10.6783 20.1591H19.0115C18.827 22.2028 17.6465 23.9501 15.9589 24.9279C15.874 24.9771 15.8036 25.0478 15.7547 25.1329C15.7057 25.2179 15.68 25.3143 15.68 25.4124V25.7591H10.08V25.4124C10.08 25.3143 10.0543 25.2179 10.0053 25.1329C9.95637 25.0478 9.88594 24.9771 9.80108 24.9279C8.11362 23.9506 6.933 22.2029 6.74842 20.1591Z" fill="#A1A1A1"/>
</svg>
