<svg width="28" height="28" viewBox="0 0 28 28" fill="none" xmlns="http://www.w3.org/2000/svg">
<path d="M12.32 0V5.215C9.00154 5.88875 6.44217 8.51375 6.17748 11.76H5.59998C5.58248 11.76 5.56498 11.76 5.54748 11.76C5.51248 11.7622 5.47748 11.7688 5.44248 11.7775C4.59592 11.8606 3.91998 12.5738 3.91998 13.44C3.91998 14.2756 4.54998 14.9625 5.35498 15.085C5.37248 15.0872 5.38998 15.1003 5.40748 15.1025C5.44248 15.1112 5.47748 15.1178 5.51248 15.12C5.54311 15.1222 5.56936 15.12 5.59998 15.12H22.4C22.4175 15.12 22.435 15.12 22.4525 15.12C22.459 15.12 22.4634 15.12 22.47 15.12C22.5006 15.1178 22.5269 15.1047 22.5575 15.1025C23.404 15.0194 24.08 14.3062 24.08 13.44C24.08 12.5738 23.404 11.8606 22.5575 11.7775C22.5159 11.7731 22.4765 11.76 22.435 11.76C22.424 11.76 22.4109 11.76 22.4 11.76H21.8225C21.5578 8.51375 18.9984 5.88875 15.68 5.215V0H14.56V5.0575C14.3719 5.04438 14.1903 5.04 14 5.04C13.8097 5.04 13.6281 5.04438 13.44 5.0575V0H12.32ZM14 6.16C17.5328 6.16 20.3787 8.63406 20.685 11.76H7.31498C7.62123 8.63406 10.4672 6.16 14 6.16ZM5.58248 12.88C5.58905 12.88 5.59342 12.88 5.59998 12.88H22.4C22.4175 12.88 22.435 12.88 22.4525 12.88C22.7434 12.9062 22.96 13.1425 22.96 13.44C22.96 13.7441 22.7347 13.9825 22.435 14C22.424 14 22.4109 14 22.4 14H5.59998C5.58248 14 5.56498 14.0022 5.54748 14C5.25655 13.9738 5.03998 13.7375 5.03998 13.44C5.03998 13.1294 5.27405 12.8888 5.58248 12.88ZM9.51998 16.8C8.90092 16.8 8.39998 17.3009 8.39998 17.92C8.39998 18.5391 8.90092 19.04 9.51998 19.04C10.139 19.04 10.64 18.5391 10.64 17.92C10.64 17.3009 10.139 16.8 9.51998 16.8ZM14 16.8C13.3809 16.8 12.88 17.3009 12.88 17.92C12.88 18.5391 13.3809 19.04 14 19.04C14.619 19.04 15.12 18.5391 15.12 17.92C15.12 17.3009 14.619 16.8 14 16.8ZM18.48 16.8C17.8609 16.8 17.36 17.3009 17.36 17.92C17.36 18.5391 17.8609 19.04 18.48 19.04C19.099 19.04 19.6 18.5391 19.6 17.92C19.6 17.3009 19.099 16.8 18.48 16.8ZM7.27998 21.28C6.66092 21.28 6.15998 21.7809 6.15998 22.4C6.15998 23.0191 6.66092 23.52 7.27998 23.52C7.89905 23.52 8.39998 23.0191 8.39998 22.4C8.39998 21.7809 7.89905 21.28 7.27998 21.28ZM11.76 21.28C11.1409 21.28 10.64 21.7809 10.64 22.4C10.64 23.0191 11.1409 23.52 11.76 23.52C12.379 23.52 12.88 23.0191 12.88 22.4C12.88 21.7809 12.379 21.28 11.76 21.28ZM16.24 21.28C15.6209 21.28 15.12 21.7809 15.12 22.4C15.12 23.0191 15.6209 23.52 16.24 23.52C16.859 23.52 17.36 23.0191 17.36 22.4C17.36 21.7809 16.859 21.28 16.24 21.28ZM20.72 21.28C20.1009 21.28 19.6 21.7809 19.6 22.4C19.6 23.0191 20.1009 23.52 20.72 23.52C21.339 23.52 21.84 23.0191 21.84 22.4C21.84 21.7809 21.339 21.28 20.72 21.28ZM5.03998 25.76C4.42092 25.76 3.91998 26.2609 3.91998 26.88C3.91998 27.4991 4.42092 28 5.03998 28C5.65905 28 6.15998 27.4991 6.15998 26.88C6.15998 26.2609 5.65905 25.76 5.03998 25.76ZM9.51998 25.76C8.90092 25.76 8.39998 26.2609 8.39998 26.88C8.39998 27.4991 8.90092 28 9.51998 28C10.139 28 10.64 27.4991 10.64 26.88C10.64 26.2609 10.139 25.76 9.51998 25.76ZM14 25.76C13.3809 25.76 12.88 26.2609 12.88 26.88C12.88 27.4991 13.3809 28 14 28C14.619 28 15.12 27.4991 15.12 26.88C15.12 26.2609 14.619 25.76 14 25.76ZM18.48 25.76C17.8609 25.76 17.36 26.2609 17.36 26.88C17.36 27.4991 17.8609 28 18.48 28C19.099 28 19.6 27.4991 19.6 26.88C19.6 26.2609 19.099 25.76 18.48 25.76ZM22.96 25.76C22.3409 25.76 21.84 26.2609 21.84 26.88C21.84 27.4991 22.3409 28 22.96 28C23.579 28 24.08 27.4991 24.08 26.88C24.08 26.2609 23.579 25.76 22.96 25.76Z" fill="#A1A1A1"/>
</svg>
