<svg width="28" height="28" viewBox="0 0 28 28" fill="none" xmlns="http://www.w3.org/2000/svg">
<path d="M0 3.91992V21.8399H28V3.91992H0ZM1.12 5.03992H26.88V20.7199H1.12V5.03992ZM11.55 9.29242C11.4888 9.29242 11.4297 9.3143 11.375 9.34492C11.2634 9.40836 11.2 9.53305 11.2 9.65992V16.7824C11.2 16.9093 11.2656 17.034 11.375 17.0974C11.4297 17.1302 11.4888 17.1324 11.55 17.1324C11.6112 17.1324 11.6878 17.1302 11.7425 17.0974L17.9025 13.5274C18.0119 13.464 18.0775 13.3393 18.0775 13.2124C18.0775 13.0855 18.0119 12.9784 17.9025 12.9149L11.7425 9.34492C11.6878 9.3143 11.6112 9.29242 11.55 9.29242ZM6.055 22.9599C5.74656 22.9884 5.51906 23.264 5.5475 23.5724C5.57594 23.8809 5.85156 24.1084 6.16 24.0799H21.84C22.0413 24.0821 22.2294 23.9771 22.3322 23.8021C22.4328 23.6271 22.4328 23.4127 22.3322 23.2377C22.2294 23.0627 22.0413 22.9577 21.84 22.9599H6.16C6.1425 22.9599 6.125 22.9599 6.1075 22.9599C6.09 22.9599 6.0725 22.9599 6.055 22.9599Z" fill="#A1A1A1"/>
</svg>
