<svg width="28" height="28" viewBox="0 0 28 28" fill="none" xmlns="http://www.w3.org/2000/svg">
<path d="M14 1.12012C9.98618 1.12012 6.71999 4.38631 6.71999 8.40012V11.7601H4.47999C3.5588 11.7601 2.79999 12.5189 2.79999 13.4401V26.3201C2.79999 27.2413 3.5588 28.0001 4.47999 28.0001H23.52C24.4412 28.0001 25.2 27.2413 25.2 26.3201V13.4401C25.2 12.5189 24.4412 11.7601 23.52 11.7601H21.28V8.40012C21.28 4.38631 18.0138 1.12012 14 1.12012ZM14 2.24012C17.4084 2.24012 20.16 4.99169 20.16 8.40012V11.7601H7.83999V8.40012C7.83999 4.99169 10.5916 2.24012 14 2.24012ZM4.47999 12.8801H23.52C23.8364 12.8801 24.08 13.1237 24.08 13.4401V26.3201C24.08 26.6365 23.8364 26.8801 23.52 26.8801H4.47999C4.16357 26.8801 3.91999 26.6365 3.91999 26.3201V13.4401C3.91999 13.1237 4.16357 12.8801 4.47999 12.8801ZM7.27999 19.0401C6.98295 19.0401 6.69807 19.1581 6.48803 19.3682C6.27799 19.5782 6.15999 19.8631 6.15999 20.1601C6.15999 20.4572 6.27799 20.742 6.48803 20.9521C6.69807 21.1621 6.98295 21.2801 7.27999 21.2801C7.57703 21.2801 7.86191 21.1621 8.07195 20.9521C8.28199 20.742 8.39999 20.4572 8.39999 20.1601C8.39999 19.8631 8.28199 19.5782 8.07195 19.3682C7.86191 19.1581 7.57703 19.0401 7.27999 19.0401ZM11.76 19.0401C11.4629 19.0401 11.1781 19.1581 10.968 19.3682C10.758 19.5782 10.64 19.8631 10.64 20.1601C10.64 20.4572 10.758 20.742 10.968 20.9521C11.1781 21.1621 11.4629 21.2801 11.76 21.2801C12.057 21.2801 12.3419 21.1621 12.5519 20.9521C12.762 20.742 12.88 20.4572 12.88 20.1601C12.88 19.8631 12.762 19.5782 12.5519 19.3682C12.3419 19.1581 12.057 19.0401 11.76 19.0401ZM16.24 19.0401C15.9429 19.0401 15.6581 19.1581 15.448 19.3682C15.238 19.5782 15.12 19.8631 15.12 20.1601C15.12 20.4572 15.238 20.742 15.448 20.9521C15.6581 21.1621 15.9429 21.2801 16.24 21.2801C16.537 21.2801 16.8219 21.1621 17.0319 20.9521C17.242 20.742 17.36 20.4572 17.36 20.1601C17.36 19.8631 17.242 19.5782 17.0319 19.3682C16.8219 19.1581 16.537 19.0401 16.24 19.0401ZM20.72 19.0401C20.4229 19.0401 20.1381 19.1581 19.928 19.3682C19.718 19.5782 19.6 19.8631 19.6 20.1601C19.6 20.4572 19.718 20.742 19.928 20.9521C20.1381 21.1621 20.4229 21.2801 20.72 21.2801C21.017 21.2801 21.3019 21.1621 21.5119 20.9521C21.722 20.742 21.84 20.4572 21.84 20.1601C21.84 19.8631 21.722 19.5782 21.5119 19.3682C21.3019 19.1581 21.017 19.0401 20.72 19.0401Z" fill="#A1A1A1"/>
</svg>
