<svg width="28" height="28" viewBox="0 0 28 28" fill="none" xmlns="http://www.w3.org/2000/svg">
<path d="M7.84 1.67969C4.13533 1.67969 1.12 4.69503 1.12 8.39969V15.1197H1.14843C1.13788 15.2127 1.12 15.304 1.12 15.3997C1.12 16.2648 1.56241 17.0322 2.23234 17.4866L2.91156 22.508C3.20866 24.687 5.07788 26.3197 7.27781 26.3197H7.28218C9.48163 26.3197 11.3513 24.6875 11.6484 22.508L12.3277 17.4866C12.9976 17.0322 13.44 16.2648 13.44 15.3997C13.44 15.304 13.4221 15.2127 13.4116 15.1197H13.44V7.27969C13.44 4.19334 10.9263 1.67969 7.84 1.67969ZM20.16 1.67969C17.0736 1.67969 14.56 4.19334 14.56 7.27969V15.1197H14.5884C14.5779 15.2127 14.56 15.304 14.56 15.3997C14.56 16.2648 15.0024 17.0322 15.6723 17.4866L16.3516 22.508C16.6487 24.6875 18.5184 26.3197 20.7178 26.3197H20.7222C22.9221 26.3197 24.7913 24.6869 25.0884 22.508L25.7677 17.4866C26.4376 17.0322 26.88 16.2648 26.88 15.3997C26.88 15.304 26.8621 15.2127 26.8516 15.1197H26.88V8.39969C26.88 4.69503 23.8647 1.67969 20.16 1.67969ZM7.84 2.79969C10.3212 2.79969 12.32 4.79851 12.32 7.27969V13.3084C11.9188 13.0384 11.4368 12.8797 10.92 12.8797H10.9156C10.4796 11.9025 9.53561 11.1997 8.4 11.1997C7.98659 11.1997 7.62643 11.35 7.27999 11.5092C6.93356 11.35 6.5734 11.1997 6.16 11.1997C5.02402 11.1997 4.08024 11.9026 3.64437 12.8797H3.64C3.12318 12.8797 2.64118 13.0384 2.24 13.3084V8.39969C2.24 5.30035 4.74066 2.79969 7.84 2.79969ZM20.16 2.79969C23.2593 2.79969 25.76 5.30035 25.76 8.39969V13.3084C25.3588 13.0384 24.8768 12.8797 24.36 12.8797H24.3556C23.9197 11.9026 22.976 11.1997 21.84 11.1997C21.4266 11.1997 21.0664 11.35 20.72 11.5092C20.3736 11.35 20.0134 11.1997 19.6 11.1997C18.4644 11.1997 17.5203 11.9025 17.0844 12.8797H17.08C16.5632 12.8797 16.0812 13.0384 15.68 13.3084V7.27969C15.68 4.79851 17.6788 2.79969 20.16 2.79969ZM6.16 12.3197C6.4623 12.3197 6.7426 12.4049 6.99781 12.5537C7.08346 12.6037 7.18084 12.63 7.27999 12.63C7.37915 12.63 7.47653 12.6037 7.56218 12.5537C7.81739 12.4049 8.09769 12.3197 8.4 12.3197C9.18578 12.3197 9.82999 12.8551 10.0177 13.5797C10.0487 13.6999 10.1189 13.8065 10.2171 13.8825C10.3153 13.9585 10.436 13.9997 10.5602 13.9997H10.92C11.6998 13.9997 12.32 14.6199 12.32 15.3997C12.32 16.1795 11.6998 16.7997 10.92 16.7997C10.5581 16.7997 10.2359 16.6616 9.98265 16.4311C9.87492 16.333 9.73322 16.2808 9.58763 16.2855C9.44203 16.2902 9.304 16.3515 9.20281 16.4562C8.99754 16.6691 8.71828 16.7997 8.4 16.7997C8.11275 16.7997 7.85899 16.6912 7.65515 16.5077C7.55225 16.4148 7.41858 16.3634 7.27999 16.3634C7.14141 16.3634 7.00774 16.4148 6.90484 16.5077C6.701 16.6912 6.44724 16.7997 6.16 16.7997C5.84171 16.7997 5.56245 16.669 5.35718 16.4562C5.25599 16.3515 5.11796 16.2902 4.97236 16.2855C4.82677 16.2808 4.68507 16.333 4.57734 16.4311C4.32406 16.6616 4.0019 16.7997 3.64 16.7997C2.86016 16.7997 2.24 16.1795 2.24 15.3997C2.24 14.6199 2.86016 13.9997 3.64 13.9997H3.99984C4.12403 13.9997 4.24472 13.9585 4.34293 13.8825C4.44113 13.8065 4.51128 13.6999 4.54234 13.5797C4.73005 12.8549 5.37352 12.3197 6.16 12.3197ZM19.6 12.3197C19.9023 12.3197 20.1826 12.4049 20.4378 12.5537C20.5235 12.6037 20.6208 12.63 20.72 12.63C20.8192 12.63 20.9165 12.6037 21.0022 12.5537C21.2574 12.4049 21.5377 12.3197 21.84 12.3197C22.6265 12.3197 23.2699 12.8549 23.4577 13.5797C23.4887 13.6999 23.5589 13.8065 23.6571 13.8825C23.7553 13.9585 23.876 13.9997 24.0002 13.9997H24.36C25.1398 13.9997 25.76 14.6199 25.76 15.3997C25.76 16.1795 25.1398 16.7997 24.36 16.7997C23.9981 16.7997 23.6759 16.6616 23.4227 16.4311C23.3149 16.333 23.1732 16.2808 23.0276 16.2855C22.882 16.2902 22.744 16.3515 22.6428 16.4562C22.4375 16.6691 22.1583 16.7997 21.84 16.7997C21.5528 16.7997 21.299 16.6912 21.0952 16.5077C20.9923 16.4148 20.8586 16.3634 20.72 16.3634C20.5814 16.3634 20.4477 16.4148 20.3448 16.5077C20.141 16.6912 19.8872 16.7997 19.6 16.7997C19.2817 16.7997 19.0025 16.669 18.7972 16.4562C18.696 16.3515 18.558 16.2902 18.4124 16.2855C18.2668 16.2808 18.1251 16.333 18.0173 16.4311C17.7641 16.6616 17.4419 16.7997 17.08 16.7997C16.3002 16.7997 15.68 16.1795 15.68 15.3997C15.68 14.6199 16.3002 13.9997 17.08 13.9997H17.4398C17.564 13.9997 17.6847 13.9585 17.7829 13.8825C17.8811 13.8065 17.9513 13.6999 17.9823 13.5797C18.17 12.8551 18.8142 12.3197 19.6 12.3197ZM4.94046 17.5041C5.29661 17.7437 5.70011 17.9197 6.16 17.9197C6.57758 17.9197 6.94762 17.7733 7.27999 17.5741C7.61237 17.7733 7.98241 17.9197 8.4 17.9197C8.85988 17.9197 9.26338 17.7437 9.61953 17.5041C10.0029 17.7439 10.4334 17.9197 10.92 17.9197C10.9959 17.9197 11.0677 17.9034 11.142 17.8967L10.5383 22.357C10.3157 23.9899 8.92994 25.1997 7.28218 25.1997H7.27781C5.62976 25.1997 4.24475 23.99 4.02171 22.3581V22.357L3.41687 17.8967C3.4915 17.9035 3.5637 17.9197 3.64 17.9197C4.1266 17.9197 4.55711 17.7439 4.94046 17.5041ZM18.3805 17.5041C18.7366 17.7437 19.1401 17.9197 19.6 17.9197C20.0176 17.9197 20.3876 17.7733 20.72 17.5741C21.0524 17.7733 21.4224 17.9197 21.84 17.9197C22.2999 17.9197 22.7034 17.7437 23.0595 17.5041C23.4429 17.7439 23.8734 17.9197 24.36 17.9197C24.4363 17.9197 24.5085 17.9035 24.5831 17.8967L23.9783 22.3581C23.7552 23.99 22.3702 25.1997 20.7222 25.1997H20.7178C19.07 25.1997 17.6843 23.9899 17.4617 22.357L16.858 17.8967C16.9322 17.9034 17.0041 17.9197 17.08 17.9197C17.5666 17.9197 17.9971 17.7439 18.3805 17.5041Z" fill="#A1A1A1"/>
</svg>
