<svg width="28" height="28" viewBox="0 0 28 28" fill="none" xmlns="http://www.w3.org/2000/svg">
<path d="M3.35999 0C2.43906 0 1.67999 0.759063 1.67999 1.68V6.16C1.67999 7.32594 1.83749 8.09156 1.97749 8.855C2.11749 9.61844 2.23999 10.3972 2.23999 11.76C2.23999 13.1228 2.11312 13.5756 1.97749 14.0525C1.84187 14.5294 1.67999 15.0741 1.67999 16.24V21.28C1.67999 22.2009 2.43906 22.96 3.35999 22.96H6.15999V23.52C6.15999 25.9875 8.17249 28 10.64 28H11.2C13.6675 28 15.68 25.9875 15.68 23.52V22.96H24.08C24.4891 22.96 24.8237 22.7588 25.1825 22.3825C25.5412 22.0063 25.9022 21.4353 26.2325 20.58C26.8953 18.8694 27.44 16.0037 27.44 11.2C27.44 6.39625 26.9041 3.68594 26.2325 2.1C25.5609 0.514063 24.7275 0 24.08 0H12.88C11.9591 0 11.2 0.759063 11.2 1.68V21.28C11.2 22.2009 11.9591 22.96 12.88 22.96H14.56V23.52C14.56 25.3816 13.0616 26.88 11.2 26.88H10.64C8.77843 26.88 7.27999 25.3816 7.27999 23.52V22.96H8.95999C9.88093 22.96 10.64 22.2009 10.64 21.28V16.24C10.64 15.0741 10.4781 14.5294 10.3425 14.0525C10.2069 13.5756 10.08 13.1228 10.08 11.76C10.08 10.3972 10.2025 9.61844 10.3425 8.855C10.4825 8.09156 10.64 7.32594 10.64 6.16V1.68C10.64 0.759063 9.88093 0 8.95999 0H3.35999ZM3.35999 1.12H8.95999C9.27499 1.12 9.51999 1.365 9.51999 1.68V6.16C9.51999 7.23406 9.39749 7.86844 9.25749 8.645C9.11749 9.42156 8.95999 10.3228 8.95999 11.76C8.95999 13.1972 9.11312 13.8644 9.25749 14.3675C9.40187 14.8706 9.51999 15.1659 9.51999 16.24V21.28C9.51999 21.595 9.27499 21.84 8.95999 21.84H6.82499C6.75062 21.8247 6.67187 21.8247 6.59749 21.84H3.35999C3.04499 21.84 2.79999 21.595 2.79999 21.28V16.24C2.79999 15.1659 2.91812 14.8706 3.06249 14.3675C3.20687 13.8644 3.35999 13.1972 3.35999 11.76C3.35999 10.3228 3.20249 9.42156 3.06249 8.645C2.92249 7.86844 2.79999 7.23406 2.79999 6.16V1.68C2.79999 1.365 3.04499 1.12 3.35999 1.12ZM12.88 1.12H24.08C24.0516 1.12 24.6269 1.16594 25.2 2.52C25.7731 3.87406 26.32 6.48375 26.32 11.2C26.32 15.9163 25.7666 18.6506 25.1825 20.16C24.8916 20.9147 24.6028 21.3587 24.3775 21.595C24.2091 21.7722 24.0625 21.8269 24.045 21.84H12.88C12.565 21.84 12.32 21.595 12.32 21.28V1.68C12.32 1.365 12.565 1.12 12.88 1.12ZM15.015 2.8C14.7481 2.85031 14.5556 3.08656 14.56 3.36V7.84C14.56 8.14844 14.8116 8.4 15.12 8.4H22.96C23.2684 8.4 23.52 8.14844 23.52 7.84V3.36C23.52 3.05156 23.2684 2.8 22.96 2.8H15.12C15.1025 2.8 15.085 2.8 15.0675 2.8C15.05 2.8 15.0325 2.8 15.015 2.8ZM15.68 3.92H22.4V7.28H15.68V3.92ZM15.12 9.52C14.8094 9.52 14.56 9.76937 14.56 10.08V11.2C14.56 11.5106 14.8094 11.76 15.12 11.76H16.24C16.5506 11.76 16.8 11.5106 16.8 11.2V10.08C16.8 9.76937 16.5506 9.52 16.24 9.52H15.12ZM18.48 9.52C18.1694 9.52 17.92 9.76937 17.92 10.08V11.2C17.92 11.5106 18.1694 11.76 18.48 11.76H19.6C19.9106 11.76 20.16 11.5106 20.16 11.2V10.08C20.16 9.76937 19.9106 9.52 19.6 9.52H18.48ZM21.84 9.52C21.5294 9.52 21.28 9.76937 21.28 10.08V11.2C21.28 11.5106 21.5294 11.76 21.84 11.76H22.96C23.2706 11.76 23.52 11.5106 23.52 11.2V10.08C23.52 9.76937 23.2706 9.52 22.96 9.52H21.84ZM15.12 12.88C14.8094 12.88 14.56 13.1294 14.56 13.44V14.56C14.56 14.8706 14.8094 15.12 15.12 15.12H16.24C16.5506 15.12 16.8 14.8706 16.8 14.56V13.44C16.8 13.1294 16.5506 12.88 16.24 12.88H15.12ZM18.48 12.88C18.1694 12.88 17.92 13.1294 17.92 13.44V14.56C17.92 14.8706 18.1694 15.12 18.48 15.12H19.6C19.9106 15.12 20.16 14.8706 20.16 14.56V13.44C20.16 13.1294 19.9106 12.88 19.6 12.88H18.48ZM21.84 12.88C21.5294 12.88 21.28 13.1294 21.28 13.44V14.56C21.28 14.8706 21.5294 15.12 21.84 15.12H22.96C23.2706 15.12 23.52 14.8706 23.52 14.56V13.44C23.52 13.1294 23.2706 12.88 22.96 12.88H21.84ZM15.12 16.24C14.8094 16.24 14.56 16.4894 14.56 16.8V17.92C14.56 18.2306 14.8094 18.48 15.12 18.48H16.24C16.5506 18.48 16.8 18.2306 16.8 17.92V16.8C16.8 16.4894 16.5506 16.24 16.24 16.24H15.12ZM18.48 16.24C18.1694 16.24 17.92 16.4894 17.92 16.8V17.92C17.92 18.2306 18.1694 18.48 18.48 18.48H19.6C19.9106 18.48 20.16 18.2306 20.16 17.92V16.8C20.16 16.4894 19.9106 16.24 19.6 16.24H18.48ZM21.84 16.24C21.5294 16.24 21.28 16.4894 21.28 16.8V17.92C21.28 18.2306 21.5294 18.48 21.84 18.48H22.96C23.2706 18.48 23.52 18.2306 23.52 17.92V16.8C23.52 16.4894 23.2706 16.24 22.96 16.24H21.84Z" fill="#A1A1A1"/>
</svg>
