<svg width="28" height="28" viewBox="0 0 28 28" fill="none" xmlns="http://www.w3.org/2000/svg">
<path d="M14 3.91992C8.74127 3.91992 3.9594 6.00898 0.437524 9.39086L0.0328369 9.78023L3.13252 13.0112L3.5394 12.6218C6.25846 10.0099 9.94002 8.39992 14 8.39992C18.06 8.39992 21.7416 10.0099 24.4628 12.6218L24.8675 13.0112L27.9672 9.78023L27.5625 9.39086C24.0406 6.00898 19.2588 3.91992 14 3.91992ZM14 5.03992C18.76 5.03992 23.0672 6.88398 26.3463 9.85023L24.7975 11.4624C21.9231 8.88555 18.1541 7.27992 14 7.27992C9.84596 7.27992 6.0769 8.88555 3.20252 11.4624L1.65377 9.85023C4.93284 6.88398 9.24002 5.03992 14 5.03992ZM14 10.6399C10.546 10.6399 7.40034 12.0137 5.08815 14.2362L4.68346 14.6234L7.79627 17.8674L8.19877 17.478C9.71252 16.0234 11.7447 15.1199 14 15.1199C16.2553 15.1199 18.2875 16.0234 19.8013 17.478L20.2038 17.8674L23.3166 14.6234L22.9141 14.2362C20.5997 12.0137 17.4541 10.6399 14 10.6399ZM14 11.7599C16.9575 11.7599 19.6306 12.8865 21.6978 14.6934L20.136 16.3187C18.4778 14.899 16.3516 13.9999 14 13.9999C11.6485 13.9999 9.52221 14.899 7.86409 16.3187L6.30221 14.6934C8.3694 12.8865 11.0425 11.7599 14 11.7599ZM14 17.3599C12.3485 17.3599 10.8456 18.0184 9.73877 19.0815L9.33627 19.4687L14 24.3271L14.4025 23.9071L18.6638 19.4687L18.2613 19.0815C17.1544 18.0184 15.6516 17.3599 14 17.3599ZM14 18.4799C15.1507 18.4799 16.1613 18.9262 17.01 19.5759L14 22.7127L10.99 19.5759C11.8388 18.9262 12.8494 18.4799 14 18.4799Z" fill="#A1A1A1"/>
</svg>
