<svg width="28" height="28" viewBox="0 0 28 28" fill="none" xmlns="http://www.w3.org/2000/svg">
<path d="M3.91999 1.12012C2.99905 1.12012 2.23999 1.87918 2.23999 2.80012V24.6401C2.23999 25.5611 2.99905 26.3201 3.91999 26.3201H4.47999V26.8801H7.83999V26.3201H20.16V26.8801H23.52V26.3201H24.08C25.0009 26.3201 25.76 25.5611 25.76 24.6401V2.80012C25.76 1.87918 25.0009 1.12012 24.08 1.12012H3.91999ZM3.91999 2.24012H24.08C24.3972 2.24012 24.64 2.48293 24.64 2.80012V24.6401C24.64 24.9573 24.3972 25.2001 24.08 25.2001H3.91999C3.6028 25.2001 3.35999 24.9573 3.35999 24.6401V2.80012C3.35999 2.48293 3.6028 2.24012 3.91999 2.24012ZM17.92 3.92012C17.3075 3.92012 16.8 4.42762 16.8 5.04012V8.86605C16.7891 8.9273 16.7891 8.98855 16.8 9.04762V9.89418L16.1 10.8239C15.4656 11.6748 15.12 12.7073 15.12 13.7704V22.4001C15.12 23.0126 15.6275 23.5201 16.24 23.5201H21.28C21.8925 23.5201 22.4 23.0126 22.4 22.4001V13.7704C22.4 12.7073 22.0566 11.6748 21.42 10.8239L20.72 9.89418V9.05418C20.7309 8.99293 20.7309 8.93168 20.72 8.87262V5.04012C20.72 4.42762 20.2125 3.92012 19.6 3.92012H17.92ZM17.92 5.04012H19.6V8.40012H17.92V5.04012ZM7.83999 8.96012C7.22749 8.96012 6.71999 9.46762 6.71999 10.0801V11.7601C6.71999 11.9767 6.84687 12.1757 7.04374 12.2676L7.02405 12.3201H7.27999C6.35905 12.3201 5.59999 13.0792 5.59999 14.0001V15.1201C5.59999 15.5554 5.7903 15.9404 6.06593 16.2401C5.7903 16.5398 5.59999 16.9248 5.59999 17.3601V18.4801C5.59999 18.9154 5.7903 19.3004 6.06593 19.6001C5.7903 19.8998 5.59999 20.2848 5.59999 20.7201V21.8401C5.59999 22.7611 6.35905 23.5201 7.27999 23.5201H11.2C12.1209 23.5201 12.88 22.7611 12.88 21.8401V20.7201C12.88 20.2848 12.6897 19.8998 12.4141 19.6001C12.6897 19.3004 12.88 18.9154 12.88 18.4801V17.3601C12.88 16.9248 12.6897 16.5398 12.4141 16.2401C12.6897 15.9404 12.88 15.5554 12.88 15.1201V14.0001C12.88 13.0792 12.1209 12.3201 11.2 12.3201H11.4559L11.4362 12.2676C11.6331 12.1757 11.76 11.9767 11.76 11.7601V10.0801C11.76 9.46762 11.2525 8.96012 10.64 8.96012H7.83999ZM17.92 9.52012H19.6V10.0801C19.6 10.2004 19.6394 10.3186 19.7116 10.4148L20.5231 11.4976C21.0153 12.1517 21.28 12.9501 21.28 13.7704V14.5601H17.36V15.6801H21.28V19.0401H17.36V20.1601H21.28V22.4001H16.24V13.7704C16.24 12.9501 16.5047 12.1517 16.9969 11.4976L17.8084 10.4148C17.8806 10.3186 17.92 10.2004 17.92 10.0801V9.52012ZM7.83999 10.0801H10.64V11.2001H7.83999V10.0801ZM8.22499 12.3201H10.255L10.5525 13.0814C10.6356 13.2979 10.8434 13.4401 11.0753 13.4401H11.2C11.5172 13.4401 11.76 13.6829 11.76 14.0001V15.1201C11.76 15.4373 11.5172 15.6801 11.2 15.6801H8.95999V16.8001H11.2C11.5172 16.8001 11.76 17.0429 11.76 17.3601V18.4801C11.76 18.7973 11.5172 19.0401 11.2 19.0401H8.95999V20.1601H11.2C11.5172 20.1601 11.76 20.4029 11.76 20.7201V21.8401C11.76 22.1573 11.5172 22.4001 11.2 22.4001H7.27999C6.9628 22.4001 6.71999 22.1573 6.71999 21.8401V20.7201C6.71999 20.4029 6.9628 20.1601 7.27999 20.1601H7.83999V19.0401H7.27999C6.9628 19.0401 6.71999 18.7973 6.71999 18.4801V17.3601C6.71999 17.0429 6.9628 16.8001 7.27999 16.8001H7.83999V15.6801H7.27999C6.9628 15.6801 6.71999 15.4373 6.71999 15.1201V14.0001C6.71999 13.6829 6.9628 13.4401 7.27999 13.4401H7.40468C7.63655 13.4401 7.84437 13.2979 7.92749 13.0814L8.22499 12.3201Z" fill="#A1A1A1"/>
</svg>
