<svg width="28" height="28" viewBox="0 0 28 28" fill="none" xmlns="http://www.w3.org/2000/svg">
<g clip-path="url(#clip0_469_17744)">
<path d="M2.8 0C1.26219 0 0 1.26219 0 2.8V11.7075C0 12.2063 0.13125 12.67 0.3325 13.0725L0.35 13.09L1.645 15.4C2.135 16.24 3.05594 16.8 4.095 16.8H6.72V15.68H4.095C3.45844 15.68 2.92031 15.3387 2.625 14.84L2.4675 14.56H25.5325L25.375 14.84C25.0884 15.3191 24.4716 15.68 23.905 15.68H21.28V16.8H23.905C24.9025 16.8 25.8541 16.2597 26.355 15.4L27.65 13.09L27.6675 13.0725C27.8687 12.67 28 12.2063 28 11.7075V2.8C28 1.26219 26.7378 0 25.2 0H2.8ZM2.8 1.12H25.2C26.1275 1.12 26.88 1.8725 26.88 2.8V11.2H1.12V2.8C1.12 1.8725 1.8725 1.12 2.8 1.12ZM21.28 3.36V5.18L19.705 4.27L19.145 5.25L20.72 6.16L19.145 7.07L19.705 8.05L21.28 7.14V8.96H22.4V7.14L23.975 8.05L24.535 7.07L22.96 6.16L24.535 5.25L23.975 4.27L22.4 5.18V3.36H21.28ZM1.26 12.32H26.74C26.7094 12.4031 26.6919 12.4862 26.6525 12.565L26.1625 13.44H1.8375L1.3475 12.565C1.30813 12.4862 1.29063 12.4031 1.26 12.32ZM8.96 15.68C8.34094 15.68 7.84 16.1809 7.84 16.8C7.84 17.4191 8.34094 17.92 8.96 17.92C9.57906 17.92 10.08 17.4191 10.08 16.8C10.08 16.1809 9.57906 15.68 8.96 15.68ZM14 15.68C13.3809 15.68 12.88 16.1809 12.88 16.8C12.88 17.4191 13.3809 17.92 14 17.92C14.6191 17.92 15.12 17.4191 15.12 16.8C15.12 16.1809 14.6191 15.68 14 15.68ZM19.04 15.68C18.4209 15.68 17.92 16.1809 17.92 16.8C17.92 17.4191 18.4209 17.92 19.04 17.92C19.6591 17.92 20.16 17.4191 20.16 16.8C20.16 16.1809 19.6591 15.68 19.04 15.68ZM8.4 19.04C7.78094 19.04 7.28 19.5409 7.28 20.16C7.28 20.7791 7.78094 21.28 8.4 21.28C9.01906 21.28 9.52 20.7791 9.52 20.16C9.52 19.5409 9.01906 19.04 8.4 19.04ZM14 19.04C13.3809 19.04 12.88 19.5409 12.88 20.16C12.88 20.7791 13.3809 21.28 14 21.28C14.6191 21.28 15.12 20.7791 15.12 20.16C15.12 19.5409 14.6191 19.04 14 19.04ZM19.6 19.04C18.9809 19.04 18.48 19.5409 18.48 20.16C18.48 20.7791 18.9809 21.28 19.6 21.28C20.2191 21.28 20.72 20.7791 20.72 20.16C20.72 19.5409 20.2191 19.04 19.6 19.04ZM7.28 22.4C6.66094 22.4 6.16 22.9009 6.16 23.52C6.16 24.1391 6.66094 24.64 7.28 24.64C7.89906 24.64 8.4 24.1391 8.4 23.52C8.4 22.9009 7.89906 22.4 7.28 22.4ZM14 22.4C13.3809 22.4 12.88 22.9009 12.88 23.52C12.88 24.1391 13.3809 24.64 14 24.64C14.6191 24.64 15.12 24.1391 15.12 23.52C15.12 22.9009 14.6191 22.4 14 22.4ZM20.72 22.4C20.1009 22.4 19.6 22.9009 19.6 23.52C19.6 24.1391 20.1009 24.64 20.72 24.64C21.3391 24.64 21.84 24.1391 21.84 23.52C21.84 22.9009 21.3391 22.4 20.72 22.4ZM5.04 25.76C4.42094 25.76 3.92 26.2609 3.92 26.88C3.92 27.4991 4.42094 28 5.04 28C5.65906 28 6.16 27.4991 6.16 26.88C6.16 26.2609 5.65906 25.76 5.04 25.76ZM14 25.76C13.3809 25.76 12.88 26.2609 12.88 26.88C12.88 27.4991 13.3809 28 14 28C14.6191 28 15.12 27.4991 15.12 26.88C15.12 26.2609 14.6191 25.76 14 25.76ZM22.96 25.76C22.3409 25.76 21.84 26.2609 21.84 26.88C21.84 27.4991 22.3409 28 22.96 28C23.5791 28 24.08 27.4991 24.08 26.88C24.08 26.2609 23.5791 25.76 22.96 25.76Z" fill="#A1A1A1"/>
</g>
<defs>
<clipPath id="clip0_469_17744">
<rect width="28" height="28" fill="white"/>
</clipPath>
</defs>
</svg>
