<svg width="28" height="28" viewBox="0 0 28 28" fill="none" xmlns="http://www.w3.org/2000/svg">
<path d="M2.8 2.7998C1.56843 2.7998 0.559998 3.80824 0.559998 5.0398V22.9598C0.559998 24.1914 1.56843 25.1998 2.8 25.1998H3.36V25.7598H6.16V25.1998H21.84V25.7598H24.64V25.1998H25.2C26.4316 25.1998 27.44 24.1914 27.44 22.9598V5.0398C27.44 3.80824 26.4316 2.7998 25.2 2.7998H2.8ZM2.8 3.9198H25.2C25.8256 3.9198 26.32 4.41418 26.32 5.0398V22.9598C26.32 23.5854 25.8256 24.0798 25.2 24.0798H2.8C2.17437 24.0798 1.68 23.5854 1.68 22.9598V5.0398C1.68 4.41418 2.17437 3.9198 2.8 3.9198ZM3.815 5.5998C3.54812 5.65012 3.35562 5.88637 3.36 6.1598V12.7048C3.32718 12.812 3.32718 12.9301 3.36 13.0373V15.0148C3.36 15.0323 3.36 15.0498 3.36 15.0673C3.35562 15.1089 3.35562 15.1482 3.36 15.1898C3.36 15.2073 3.36 15.2248 3.36 15.2423V21.8398C3.36 22.1482 3.61156 22.3998 3.92 22.3998H24.08C24.3884 22.3998 24.64 22.1482 24.64 21.8398V6.1598C24.64 5.85137 24.3884 5.5998 24.08 5.5998H3.92C3.9025 5.5998 3.885 5.5998 3.8675 5.5998C3.85 5.5998 3.8325 5.5998 3.815 5.5998ZM4.48 6.7198H23.52V21.2798H4.48V15.3648L5.4425 14.4023C5.55187 14.2973 5.61312 14.1507 5.61312 13.9998C5.61312 13.8489 5.55187 13.7023 5.4425 13.5973L4.48 12.6348V6.7198ZM13.9475 7.8223C13.9234 7.82668 13.8994 7.83324 13.8775 7.8398C13.86 7.84418 13.8425 7.85074 13.825 7.8573C12.2784 7.90105 10.8784 8.51793 9.8175 9.5023C9.67312 9.55918 9.55937 9.67293 9.5025 9.8173C8.54 10.8542 7.92531 12.2148 7.8575 13.7198C7.75906 13.8926 7.75906 14.107 7.8575 14.2798C7.92531 15.7629 8.51156 17.117 9.45 18.1473C9.50031 18.3442 9.65562 18.4995 9.8525 18.5498C10.9112 19.5145 12.3112 20.1029 13.8425 20.1423C13.86 20.1489 13.8775 20.1554 13.895 20.1598C13.93 20.1598 13.965 20.1598 14 20.1598C14.0416 20.1598 14.0809 20.1598 14.1225 20.1598C14.14 20.1554 14.1575 20.1489 14.175 20.1423C15.6997 20.0986 17.0931 19.5101 18.1475 18.5498C18.3487 18.4951 18.5041 18.3332 18.55 18.1298C19.5103 17.0732 20.1031 15.6842 20.1425 14.1573C20.1491 14.1464 20.1556 14.1332 20.16 14.1223C20.16 14.1157 20.16 14.1114 20.16 14.1048C20.1644 14.0698 20.1644 14.0348 20.16 13.9998C20.16 13.9757 20.16 13.9539 20.16 13.9298C20.1578 13.8948 20.1512 13.8598 20.1425 13.8248C20.0987 12.2564 19.4731 10.8301 18.4625 9.7648C18.4559 9.75824 18.4516 9.75387 18.445 9.7473C18.4362 9.73855 18.4362 9.72105 18.4275 9.7123C18.3816 9.64887 18.3203 9.59418 18.2525 9.5548C17.1937 8.54199 15.7741 7.9098 14.21 7.8573C14.1269 7.82449 14.0372 7.81355 13.9475 7.8223ZM13.44 8.9773C13.4444 9.28355 13.6937 9.52855 14 9.52855C14.3062 9.52855 14.5556 9.28355 14.56 8.9773C15.54 9.0823 16.4216 9.48043 17.15 10.0623C16.9837 10.1979 16.9072 10.4145 16.9553 10.6245C17.0034 10.8323 17.1675 10.9964 17.3753 11.0445C17.5853 11.0926 17.8019 11.0161 17.9375 10.8498C18.5194 11.5782 18.9175 12.4598 19.0225 13.4398C19.0116 13.4398 18.9984 13.4398 18.9875 13.4398C18.97 13.4398 18.9525 13.4398 18.935 13.4398C18.6375 13.4792 18.4231 13.7439 18.4472 14.0414C18.4712 14.3389 18.7228 14.5686 19.0225 14.5598C18.9175 15.5398 18.5194 16.4214 17.9375 17.1498C17.8216 17.0361 17.6619 16.9792 17.5 16.9923C17.4825 16.9923 17.465 16.9923 17.4475 16.9923C17.2441 17.0295 17.0756 17.1761 17.0144 17.3751C16.9509 17.5742 17.0034 17.7907 17.15 17.9373C16.4216 18.5192 15.54 18.9173 14.56 19.0223C14.56 18.8648 14.4944 18.7139 14.3784 18.6067C14.2603 18.4995 14.105 18.447 13.9475 18.4623C13.9234 18.4667 13.8994 18.4732 13.8775 18.4798C13.6237 18.5367 13.4422 18.762 13.44 19.0223C12.46 18.9173 11.5784 18.5192 10.85 17.9373C11.0053 17.7732 11.0469 17.5304 10.955 17.3248C10.8631 17.117 10.6553 16.9879 10.43 16.9923C10.4125 16.9923 10.395 16.9923 10.3775 16.9923C10.2594 17.0098 10.1478 17.0645 10.0625 17.1498C9.48062 16.4214 9.0825 15.5398 8.9775 14.5598C9.28375 14.5554 9.52875 14.3061 9.52875 13.9998C9.52875 13.6936 9.28375 13.4442 8.9775 13.4398C9.0825 12.4598 9.48062 11.5782 10.0625 10.8498C10.1981 11.0161 10.4147 11.0926 10.6247 11.0445C10.8325 10.9964 10.9966 10.8323 11.0447 10.6245C11.0928 10.4145 11.0162 10.1979 10.85 10.0623C11.5784 9.48043 12.46 9.0823 13.44 8.9773ZM14 11.1998C12.46 11.1998 11.2 12.4598 11.2 13.9998C11.2 15.5398 12.46 16.7998 14 16.7998C15.54 16.7998 16.8 15.5398 16.8 13.9998C16.8 12.4598 15.54 11.1998 14 11.1998ZM14 12.3198C14.9341 12.3198 15.68 13.0657 15.68 13.9998C15.68 14.9339 14.9341 15.6798 14 15.6798C13.0659 15.6798 12.32 14.9339 12.32 13.9998C12.32 13.0657 13.0659 12.3198 14 12.3198Z" fill="#A1A1A1"/>
</svg>
