<svg width="28" height="28" viewBox="0 0 28 28" fill="none" xmlns="http://www.w3.org/2000/svg">
<g clip-path="url(#clip0_469_17802)">
<path d="M7.84 1.11914C3.5175 1.11914 0 4.63664 0 8.95914C0 11.1204 0.872813 13.087 2.2925 14.5066C2.30344 14.5132 2.31656 14.5198 2.3275 14.5241C2.34281 14.5395 2.34719 14.5635 2.3625 14.5766C2.39969 14.6226 2.4675 14.7101 2.59 14.9616C2.76063 15.3116 2.97063 15.8826 3.08 16.7116C3.11938 17.0091 3.0625 18.0963 2.9225 19.2491C2.7825 20.402 2.57906 21.686 2.38 22.6441C2.20063 23.5038 2.21813 24.2891 2.5725 24.9541C2.92688 25.6191 3.59406 26.0916 4.48 26.3541C4.50406 26.3563 4.52594 26.3563 4.55 26.3541L7.315 26.8266C7.32156 26.8266 7.32594 26.8266 7.3325 26.8266C7.49438 26.8463 7.98 26.8835 8.505 26.8266C8.7675 26.7982 9.04094 26.761 9.31 26.6341C9.57906 26.5073 9.87219 26.271 9.9925 25.9166C10.1259 25.5207 10.0516 25.1007 9.9225 24.8141C9.79344 24.5276 9.65563 24.3373 9.5375 24.1141C9.30125 23.6679 9.07812 23.0948 9.415 21.6466C9.70594 20.3976 10.0231 19.411 10.395 18.1991C10.7056 17.1863 11.1344 16.646 11.4625 16.3441C11.7906 16.0423 11.9525 16.0116 11.9525 16.0116C12.0072 15.9963 12.0619 15.9723 12.11 15.9416L21.42 13.6316C21.6672 13.5682 21.84 13.3451 21.84 13.0891V4.82914C21.84 4.5732 21.6672 4.35008 21.42 4.28664L10.2375 1.50414L10.2025 1.48664V1.50414C9.45656 1.26789 8.66687 1.11914 7.84 1.11914ZM7.84 2.23914C8.5575 2.23914 9.25531 2.36164 9.905 2.57164C9.91594 2.57164 9.92906 2.57164 9.94 2.57164L20.72 5.26664V12.6516L9.94 15.3466C9.92906 15.3466 9.91594 15.3466 9.905 15.3466C9.25531 15.5566 8.5575 15.6791 7.84 15.6791C6.00469 15.6791 4.34438 14.9441 3.1325 13.7541C3.115 13.741 3.0975 13.7301 3.08 13.7191C3.06906 13.7082 3.05594 13.6951 3.045 13.6841C3.03406 13.671 3.02313 13.6601 3.01 13.6491C1.83531 12.4395 1.12 10.7813 1.12 8.95914C1.12 5.24258 4.12344 2.23914 7.84 2.23914ZM7.84 5.03914C5.68094 5.03914 3.92 6.80008 3.92 8.95914C3.92 11.1182 5.68094 12.8791 7.84 12.8791C9.99906 12.8791 11.76 11.1182 11.76 8.95914C11.76 6.80008 9.99906 5.03914 7.84 5.03914ZM22.8375 5.58164C22.5422 5.6407 22.3387 5.91414 22.3694 6.21602C22.4022 6.5157 22.6581 6.74102 22.96 6.73664C24.2594 6.73664 24.4672 6.93133 24.9025 7.20914C25.3378 7.48695 26.0028 7.85664 27.44 7.85664C27.6653 7.88727 27.8884 7.78445 28.0109 7.59414C28.1334 7.40164 28.1334 7.15664 28.0109 6.96414C27.8884 6.77383 27.6653 6.67102 27.44 6.70164C26.1625 6.70164 25.97 6.51133 25.5325 6.22914C25.095 5.94695 24.4169 5.58164 22.96 5.58164C22.9184 5.57727 22.8791 5.57727 22.8375 5.58164ZM7.84 6.15914C9.39313 6.15914 10.64 7.40602 10.64 8.95914C10.64 10.5123 9.39313 11.7591 7.84 11.7591C6.28688 11.7591 5.04 10.5123 5.04 8.95914C5.04 7.40602 6.28688 6.15914 7.84 6.15914ZM22.8375 8.38164C22.5422 8.4407 22.3387 8.71414 22.3694 9.01602C22.4022 9.3157 22.6581 9.54101 22.96 9.53664C24.2594 9.53664 24.4672 9.73133 24.9025 10.0091C25.3378 10.287 26.0028 10.6566 27.44 10.6566C27.6653 10.6873 27.8884 10.5845 28.0109 10.3941C28.1334 10.2016 28.1334 9.95664 28.0109 9.76414C27.8884 9.57383 27.6653 9.47101 27.44 9.50164C26.1625 9.50164 25.97 9.31133 25.5325 9.02914C25.095 8.74695 24.4169 8.38164 22.96 8.38164C22.9184 8.37726 22.8791 8.37726 22.8375 8.38164ZM22.8375 11.1816C22.5422 11.2407 22.3387 11.5141 22.3694 11.816C22.4022 12.1157 22.6581 12.341 22.96 12.3366C24.2594 12.3366 24.4672 12.5313 24.9025 12.8091C25.3378 13.087 26.0028 13.4566 27.44 13.4566C27.6653 13.4873 27.8884 13.3845 28.0109 13.1941C28.1334 13.0016 28.1334 12.7566 28.0109 12.5641C27.8884 12.3738 27.6653 12.271 27.44 12.3016C26.1625 12.3016 25.97 12.1113 25.5325 11.8291C25.095 11.547 24.4169 11.1816 22.96 11.1816C22.9184 11.1773 22.8791 11.1773 22.8375 11.1816ZM4.06 15.8191C5.18438 16.4426 6.46625 16.7991 7.84 16.7991C8.57063 16.7991 9.27063 16.6745 9.94 16.4841C9.71688 16.8604 9.49813 17.3241 9.3275 17.8841C8.95781 19.0916 8.63188 20.0913 8.33 21.3841C7.94938 23.0204 8.21406 24.0245 8.54 24.6391C8.70406 24.9476 8.85063 25.1445 8.9075 25.2691C8.96438 25.3938 8.9775 25.396 8.925 25.5491C8.925 25.547 8.93156 25.5754 8.8375 25.6191C8.74344 25.6629 8.56844 25.7045 8.3825 25.7241C8.01719 25.7635 7.61031 25.7198 7.49 25.7066H7.4725L4.795 25.2691C4.78625 25.267 4.78625 25.2538 4.7775 25.2516C4.08844 25.0416 3.73406 24.7726 3.5525 24.4291C3.36875 24.0813 3.33375 23.587 3.4825 22.8716C3.6925 21.8698 3.89813 20.5573 4.0425 19.3716C4.18688 18.186 4.28313 17.2038 4.2 16.5716C4.165 16.2982 4.1125 16.051 4.06 15.8191Z" fill="#A1A1A1"/>
</g>
<defs>
<clipPath id="clip0_469_17802">
<rect width="28" height="28" fill="white"/>
</clipPath>
</defs>
</svg>
