<svg width="28" height="28" viewBox="0 0 28 28" fill="none" xmlns="http://www.w3.org/2000/svg">
<path d="M11.2 1.12012C11.1241 1.11994 11.0489 1.13519 10.9791 1.16496L7.16514 2.80012H7.27561C7.18276 2.80012 7.09135 2.82322 7.00964 2.86732C6.92792 2.91142 6.85846 2.97515 6.80749 3.05278L0.442957 12.7675C0.361908 12.8917 0.333434 13.0429 0.36378 13.1881C0.394127 13.3333 0.480816 13.4605 0.604832 13.5418L3.73405 15.5926C3.85812 15.6738 4.00931 15.7024 4.15447 15.6723C4.29963 15.6421 4.42691 15.5557 4.50843 15.4318L6.71999 12.0751V15.1201C6.57147 15.1201 6.42904 15.1791 6.32402 15.2842C6.21901 15.3892 6.16 15.5316 6.15999 15.6801V17.9201C6.16 18.0686 6.21901 18.2111 6.32402 18.3161C6.42904 18.4211 6.57147 18.4801 6.71999 18.4801V26.2993C6.72 26.4479 6.77901 26.5903 6.88402 26.6953C6.98904 26.8003 7.13147 26.8593 7.27999 26.8593H14H20.72C20.8685 26.8593 21.0109 26.8003 21.1159 26.6953C21.221 26.5903 21.28 26.4479 21.28 26.2993V18.4801C21.4285 18.4801 21.5709 18.4211 21.676 18.3161C21.781 18.2111 21.84 18.0686 21.84 17.9201V15.6801C21.84 15.5316 21.781 15.3892 21.676 15.2842C21.5709 15.1791 21.4285 15.1201 21.28 15.1201V12.0751L23.4915 15.4318C23.5731 15.5557 23.7003 15.6421 23.8455 15.6723C23.9907 15.7024 24.1419 15.6738 24.2659 15.5926L27.3951 13.5418C27.5192 13.4605 27.6058 13.3333 27.6362 13.1881C27.6665 13.0429 27.6381 12.8917 27.557 12.7675L21.1925 3.05278C21.1415 2.97515 21.0721 2.91142 20.9903 2.86732C20.9086 2.82322 20.8172 2.80012 20.7244 2.80012H20.8348L17.0209 1.16496C16.9511 1.13519 16.8759 1.11994 16.8 1.12012H14H11.2ZM12.1734 2.24012H14H15.8266L14 5.14184L12.1734 2.24012ZM10.9495 2.39653L16.24 10.802V15.1201H14C14 14.9716 13.941 14.8292 13.836 14.7242C13.7309 14.6191 13.5885 14.5601 13.44 14.5601H11.2C11.0515 14.5601 10.909 14.6191 10.804 14.7242C10.699 14.8292 10.64 14.9716 10.64 15.1201H7.83999V10.207C7.84018 10.0864 7.80145 9.96895 7.72953 9.87213C7.65762 9.77532 7.55638 9.7043 7.44086 9.66965C7.32535 9.63499 7.20173 9.63855 7.0884 9.6798C6.97507 9.72104 6.87808 9.79776 6.81186 9.89856L3.88061 14.349L1.68764 12.9129L7.57858 3.92012H7.27999C7.35591 3.9203 7.43108 3.90504 7.50093 3.87528L10.9495 2.39653ZM17.0505 2.39653L20.4991 3.87528C20.5679 3.90461 20.6419 3.91986 20.7167 3.92012H20.4214L26.3123 12.9129L24.1194 14.349L21.1881 9.89856C21.1219 9.79776 21.0249 9.72104 20.9116 9.6798C20.7982 9.63855 20.6746 9.63499 20.5591 9.66965C20.4436 9.7043 20.3424 9.77532 20.2704 9.87213C20.1985 9.96895 20.1598 10.0864 20.16 10.207V15.1201H17.36V10.6401C17.3599 10.5344 17.33 10.4309 17.2736 10.3415L14.6617 6.19293L17.0505 2.39653ZM11.76 15.6801H12.88V23.5201H11.76V15.6801ZM7.27999 16.2401H10.64V17.3601H7.27999V16.2401ZM14 16.2401H20.72V17.3601H14V16.2401ZM7.83999 18.4801H10.64V24.0801C10.64 24.2286 10.699 24.3711 10.804 24.4761C10.909 24.5811 11.0515 24.6401 11.2 24.6401H13.44C13.5885 24.6401 13.7309 24.5811 13.836 24.4761C13.941 24.3711 14 24.2286 14 24.0801V18.4801H16.24V25.7393H14H7.83999V18.4801ZM17.36 18.4801H20.16V25.7393H17.36V18.4801Z" fill="#A1A1A1"/>
</svg>
