<?xml version="1.0" standalone="no"?>
<!DOCTYPE svg PUBLIC "-//W3C//DTD SVG 20010904//EN"
 "http://www.w3.org/TR/2001/REC-SVG-20010904/DTD/svg10.dtd">
<svg version="1.0" xmlns="http://www.w3.org/2000/svg"
 width="700.000000pt" height="700.000000pt" viewBox="0 0 700.000000 700.000000"
 preserveAspectRatio="xMidYMid meet">
<metadata>
Created by potrace 1.14, written by Peter Selinger 2001-2017
</metadata>
<g transform="translate(0.000000,700.000000) scale(0.100000,-0.100000)"
fill="#000000" stroke="none">
<path d="M3765 6918 c-47 -102 -67 -189 -68 -288 -1 -132 16 -205 82 -344 29
-59 128 -219 164 -262 9 -10 50 -64 91 -119 41 -55 79 -104 83 -110 5 -5 24
-32 43 -60 19 -27 37 -52 40 -55 38 -38 165 -270 215 -395 102 -251 145 -473
140 -720 -4 -148 -23 -258 -66 -381 -56 -159 -123 -267 -244 -393 -154 -160
-375 -280 -645 -349 l-35 -9 40 -11 c109 -31 421 -35 575 -8 14 3 71 12 127
21 57 8 183 31 280 51 98 20 189 38 203 40 14 3 67 14 118 24 83 18 234 45
302 55 14 2 44 6 68 10 240 38 549 40 732 4 145 -28 274 -77 385 -145 28 -16
56 -34 64 -39 22 -13 -21 56 -100 160 -145 194 -333 334 -574 430 -96 38 -275
82 -371 91 -148 15 -343 8 -449 -16 -22 -5 -54 -11 -72 -15 -18 -3 -44 -10
-58 -15 -30 -11 -31 -14 26 71 48 72 111 199 138 281 107 320 41 654 -198
1009 -110 164 -227 303 -476 563 -11 12 -51 57 -90 101 -38 44 -72 82 -75 85
-22 22 -98 121 -152 200 -141 204 -207 381 -204 543 0 37 0 67 -2 67 -2 0 -18
-33 -37 -72z"/>
<path d="M3452 5818 c-57 -9 -160 -42 -175 -57 -14 -14 33 -74 86 -109 89 -61
181 -71 272 -28 55 26 152 123 138 137 -4 4 -42 19 -83 33 -84 28 -159 35
-238 24z"/>
<path d="M3194 5711 c-48 -36 -83 -81 -90 -121 -20 -98 169 -187 329 -156 46
9 47 18 4 34 -65 24 -143 122 -174 219 -9 29 -19 53 -23 53 -3 0 -24 -13 -46
-29z"/>
<path d="M3797 5733 c-4 -3 -7 -14 -7 -23 0 -29 -57 -133 -97 -177 -21 -23
-58 -51 -82 -61 l-43 -20 37 -12 c76 -25 168 -15 250 27 121 63 119 153 -6
246 -39 29 -42 30 -52 20z"/>
<path d="M3033 5555 c-83 -99 -110 -186 -79 -258 28 -69 163 -162 267 -186 49
-12 162 -15 172 -5 3 4 -15 23 -41 43 -57 46 -146 153 -200 241 -45 74 -85
177 -78 197 9 23 -2 14 -41 -32z"/>
<path d="M3972 5575 c-3 -45 -46 -138 -98 -216 -47 -72 -189 -223 -229 -245
-27 -15 95 -19 158 -5 112 26 243 117 277 194 32 70 4 171 -73 261 l-32 38 -3
-27z"/>
<path d="M3474 5417 c-68 -47 -134 -70 -187 -66 -55 5 -53 -8 12 -55 77 -57
137 -75 233 -73 71 2 93 7 148 34 36 17 80 47 98 65 l32 34 -35 -4 c-55 -6
-124 15 -188 59 -32 21 -59 39 -61 39 -2 0 -26 -15 -52 -33z"/>
<path d="M4140 5320 c-4 -104 -51 -182 -148 -249 -67 -46 -82 -60 -142 -131
-61 -73 -99 -109 -135 -127 l-30 -16 25 -9 c45 -17 157 -21 222 -9 76 15 195
70 244 113 100 88 100 200 1 393 -35 68 -36 69 -37 35z"/>
<path d="M2856 5255 c-58 -128 -72 -205 -47 -277 24 -73 150 -158 283 -194 54
-14 188 -13 242 1 l28 8 -43 27 c-24 15 -65 50 -91 76 -25 27 -64 67 -85 89
-21 22 -60 56 -88 74 -98 66 -136 115 -159 203 l-13 52 -27 -59z"/>
<path d="M5232 5229 c-61 -23 -44 -113 21 -107 38 4 69 47 51 75 -18 29 -47
42 -72 32z"/>
<path d="M3380 5059 c-41 -17 -102 -33 -137 -36 l-62 -6 37 -30 c139 -111 351
-132 517 -52 39 19 85 46 103 62 l33 28 -73 1 c-57 1 -90 8 -150 33 -102 41
-166 41 -268 0z"/>
<path d="M2539 5048 c-36 -38 -137 -177 -172 -237 -87 -150 -128 -281 -133
-431 -4 -127 13 -215 61 -311 28 -54 25 -56 -30 -33 -61 25 -223 63 -304 71
-94 10 -297 10 -373 0 -213 -25 -439 -104 -623 -217 -168 -103 -339 -273 -435
-434 -25 -42 -30 -43 55 9 130 81 327 145 495 163 135 14 399 8 580 -14 82 -9
392 -63 545 -94 83 -17 164 -33 180 -36 17 -3 75 -14 130 -24 162 -31 214 -39
370 -56 165 -18 461 -4 512 24 13 8 7 11 -27 17 -221 37 -479 204 -624 404
-163 225 -240 473 -240 776 0 164 16 288 53 413 11 38 9 39 -20 10z"/>
<path d="M5265 5012 c-39 -25 -51 -40 -63 -83 -28 -102 73 -193 176 -160 83
26 116 137 63 208 -40 53 -120 69 -176 35z"/>
<path d="M2741 4873 c-17 -96 -16 -172 4 -238 51 -176 345 -296 568 -231 52
15 77 36 43 36 -17 0 -120 68 -165 110 -62 57 -135 107 -216 148 -95 47 -156
105 -194 185 l-28 58 -12 -68z"/>
<path d="M4280 4917 c0 -22 -44 -95 -82 -135 -22 -23 -78 -60 -136 -90 -91
-46 -125 -68 -173 -113 -39 -38 -125 -102 -163 -121 l-41 -21 50 -14 c113 -30
243 -21 355 27 151 65 221 153 225 285 2 80 -13 195 -26 195 -5 0 -9 -6 -9
-13z"/>
<path d="M3331 4728 c-42 -21 -93 -41 -114 -44 -20 -4 -39 -9 -41 -13 -7 -12
84 -73 145 -98 120 -49 249 -53 374 -11 63 20 171 86 168 102 -1 5 -26 17 -55
26 -29 9 -75 30 -103 45 -47 27 -58 29 -174 30 l-124 1 -76 -38z"/>
<path d="M5276 4656 c-49 -18 -112 -80 -127 -123 -30 -91 3 -194 79 -247 34
-24 56 -31 106 -34 55 -4 71 0 113 22 115 63 147 207 70 308 -57 74 -157 105
-241 74z"/>
<path d="M1928 4537 c-21 -5 -53 -24 -71 -42 -85 -85 -64 -219 43 -276 103
-56 237 16 248 132 12 129 -93 217 -220 186z"/>
<path d="M4306 4476 c-35 -60 -95 -107 -202 -160 -49 -24 -148 -80 -221 -124
-73 -44 -138 -82 -145 -85 -36 -12 16 -22 120 -22 134 1 196 16 288 71 100 60
167 147 179 231 7 52 13 133 10 133 -2 0 -15 -20 -29 -44z"/>
<path d="M2718 4418 c14 -230 272 -389 560 -346 l73 11 -138 74 c-76 40 -188
99 -250 129 -117 58 -193 116 -219 165 -23 45 -30 35 -26 -33z"/>
<path d="M1504 4407 c-30 -27 -36 -40 -37 -74 -3 -158 212 -177 237 -21 10 65
-49 128 -120 128 -36 0 -51 -6 -80 -33z"/>
<path d="M3337 4362 c-39 -24 -87 -50 -107 -57 -19 -6 -34 -16 -34 -21 2 -13
113 -72 159 -85 79 -22 91 -23 180 -23 104 1 198 29 283 85 53 34 64 49 38 49
-8 0 -54 21 -103 47 l-88 47 -128 1 -128 1 -72 -44z"/>
<path d="M5713 4318 c-40 -11 -63 -42 -63 -88 1 -106 150 -124 180 -21 19 66
-48 128 -117 109z"/>
<path d="M1297 4283 c-15 -7 -27 -15 -27 -16 0 -1 -4 -17 -9 -35 -13 -45 25
-92 74 -92 49 0 87 47 74 92 -11 39 -18 46 -55 57 -21 6 -38 4 -57 -6z"/>
<path d="M3425 4039 c-27 -4 -87 -18 -132 -32 -45 -14 -84 -22 -87 -19 -3 3
-6 1 -6 -5 0 -5 22 -22 50 -37 140 -76 320 -89 470 -33 85 31 164 86 128 88
-7 0 -20 2 -28 4 -176 37 -290 47 -395 34z"/>
<path d="M4145 4028 c-11 -7 -69 -27 -128 -44 -94 -28 -117 -39 -165 -82 -115
-99 -203 -135 -327 -135 -120 1 -172 19 -299 102 -68 45 -121 71 -202 97 -60
20 -118 41 -128 47 -30 15 33 -61 102 -124 158 -145 344 -214 555 -205 204 8
377 85 522 231 63 63 112 125 98 125 -4 0 -17 -6 -28 -12z"/>
<path d="M4699 3300 c-74 -21 -130 -101 -123 -177 7 -88 65 -149 151 -160 163
-19 262 172 150 287 -47 48 -116 67 -178 50z"/>
<path d="M101 3197 c-22 -10 -54 -35 -71 -53 l-30 -35 34 -30 c59 -51 60 -61
57 -520 l-2 -417 46 -7 c26 -3 57 -8 68 -11 128 -26 1020 -25 1099 1 7 2 32 6
56 9 24 3 48 8 53 11 6 4 8 202 7 518 l-3 512 -160 3 -160 2 0 -427 0 -428
-92 -2 c-83 -3 -93 -1 -93 15 -1 9 0 203 0 430 l1 412 -158 0 -158 0 1 -429 1
-429 -94 -1 -93 -1 1 359 c1 384 -1 406 -49 470 -51 69 -170 91 -261 48z"/>
<path d="M5110 3211 c-44 -14 -84 -38 -115 -70 l-29 -31 36 -30 c20 -17 42
-46 48 -65 8 -26 11 -156 8 -458 l-3 -422 165 0 165 0 -1 45 c-1 25 -5 146 -8
270 -4 124 -9 241 -11 260 -5 36 21 -12 224 -412 l85 -165 142 0 142 0 4 26
c1 14 3 249 3 521 l0 495 -160 3 -160 2 2 -87 c7 -311 12 -430 18 -448 l7 -20
-14 20 c-8 11 -43 74 -78 139 -75 143 -151 273 -177 302 -10 12 -29 35 -42 52
-49 65 -166 99 -251 73z"/>
<path d="M6122 3204 c-24 -9 -62 -34 -85 -55 l-41 -40 32 -22 c17 -12 39 -38
49 -57 18 -37 17 -31 13 -670 -1 -113 -1 -210 -1 -216 1 -7 54 -11 165 -11
l165 1 -5 190 c-6 250 -11 356 -19 389 -13 52 4 26 69 -100 35 -71 105 -207
154 -303 l90 -175 143 0 144 0 3 523 2 522 -161 0 -161 0 6 -232 c3 -128 8
-253 11 -278 l6 -45 -19 35 c-10 19 -35 64 -54 100 -153 288 -230 399 -302
436 -45 23 -151 27 -204 8z"/>
<path d="M1595 2891 c-47 -12 -91 -38 -114 -67 -12 -15 -21 -29 -21 -33 0 -3
15 -16 34 -29 52 -36 65 -92 68 -312 3 -175 5 -188 29 -235 15 -31 42 -62 68
-80 37 -26 52 -30 104 -30 43 1 74 7 103 22 44 24 111 87 120 115 8 27 19 22
33 -17 28 -78 90 -119 180 -119 74 0 134 26 169 74 l20 27 -34 32 c-19 19 -38
50 -45 74 -12 42 -14 259 -4 455 l4 102 -154 0 -155 0 0 -32 c-5 -427 -6 -443
-23 -475 -30 -56 -86 -71 -105 -28 -7 15 -12 96 -12 210 -2 179 -2 186 -28
237 -43 84 -146 132 -237 109z"/>
<path d="M2470 2888 c-19 -7 -51 -29 -73 -51 l-39 -39 36 -34 c19 -19 40 -51
46 -73 5 -21 10 -155 11 -299 1 -236 3 -262 18 -263 9 0 25 -2 36 -4 127 -20
747 -29 920 -13 102 10 169 19 174 24 4 4 5 500 1 702 l0 33 -147 -3 -148 -3
-1 -280 c-1 -154 -2 -286 -3 -292 -1 -9 -21 -13 -66 -13 l-65 0 0 295 0 296
-143 -2 -144 -1 1 -281 c1 -155 0 -288 -2 -294 -3 -9 -26 -13 -67 -13 l-64 0
-3 238 c-3 224 -4 239 -26 279 -32 60 -86 94 -159 98 -32 2 -74 -1 -93 -7z"/>
<path d="M3751 2885 c-19 -8 -49 -32 -68 -52 l-35 -36 30 -23 c55 -44 65 -88
64 -289 -1 -99 -4 -217 -7 -262 -3 -46 -2 -84 2 -84 5 -1 74 -3 156 -3 l147
-2 1 86 c0 47 0 119 0 160 l0 75 24 -28 c14 -15 25 -36 25 -45 0 -35 53 -174
77 -203 43 -51 98 -73 183 -73 57 0 85 5 115 21 38 20 95 69 95 82 0 3 -23 22
-51 41 -64 43 -97 85 -143 180 -51 105 -80 133 -147 145 -18 3 -35 8 -37 10
-2 2 2 23 9 47 9 27 24 48 41 58 38 21 61 5 69 -48 6 -50 7 -51 48 -56 85 -10
162 35 181 105 38 140 -95 244 -252 197 -88 -26 -178 -145 -219 -288 l-13 -45
-7 105 c-7 119 -22 155 -83 204 -32 26 -47 31 -104 33 -44 2 -79 -2 -101 -12z"/>
<path d="M4625 2871 c-28 -16 -57 -40 -64 -54 -13 -24 -12 -28 17 -52 56 -47
62 -102 52 -490 l-4 -140 152 -2 152 -2 1 57 c0 31 1 168 2 303 l1 246 -27 55
c-51 105 -176 140 -282 79z"/>
<path d="M3327 1844 c-1 -1 -65 -5 -142 -9 -175 -9 -205 -11 -281 -20 -34 -3
-81 -8 -106 -10 -42 -4 -302 -40 -343 -49 -11 -2 -54 -9 -95 -16 -41 -7 -102
-18 -135 -26 -33 -7 -74 -15 -91 -18 -60 -11 -390 -97 -504 -133 -208 -64
-583 -202 -603 -222 -4 -4 11 -61 34 -127 22 -65 90 -261 149 -434 168 -491
189 -550 194 -559 3 -5 67 16 143 46 75 31 142 56 148 58 5 1 21 7 35 12 170
70 704 206 925 237 22 3 49 7 60 10 12 2 48 7 80 11 33 4 68 9 79 11 10 2 53
6 95 9 42 3 83 8 91 10 85 22 744 23 915 1 17 -2 66 -7 110 -11 44 -4 87 -8
95 -10 8 -1 42 -6 75 -9 33 -4 83 -11 110 -16 28 -5 66 -12 85 -15 19 -3 91
-17 160 -31 69 -14 134 -27 145 -30 163 -31 659 -193 832 -270 53 -24 45 -37
116 176 20 58 60 177 90 265 31 88 94 272 141 409 47 137 83 253 81 257 -8 11
-289 120 -460 177 -202 68 -481 145 -635 176 -178 35 -341 67 -370 71 -20 3
-45 7 -55 9 -11 2 -47 7 -80 10 -33 4 -71 9 -85 11 -14 2 -43 6 -65 9 -22 3
-74 8 -115 12 -41 3 -91 7 -110 9 -113 12 -701 28 -713 19z m603 -118 c158
-11 322 -25 360 -31 14 -2 50 -7 80 -10 30 -3 80 -10 110 -15 30 -5 75 -12
100 -15 25 -3 59 -8 75 -12 17 -3 39 -7 50 -9 165 -21 613 -138 870 -227 267
-92 342 -129 305 -152 -5 -3 -76 20 -157 51 -127 49 -242 87 -443 149 -56 17
-354 92 -395 99 -16 2 -41 7 -55 11 -107 24 -443 75 -595 90 -33 3 -76 8 -95
10 -32 4 -126 10 -300 20 -79 5 -564 5 -640 1 -130 -8 -258 -17 -290 -21 -19
-3 -80 -9 -135 -14 -110 -11 -124 -13 -305 -42 -213 -34 -273 -45 -480 -95
-247 -59 -489 -135 -712 -224 -111 -44 -118 -46 -124 -28 -3 11 -4 21 -2 23 9
9 299 118 408 154 295 96 709 191 1010 231 128 18 141 19 195 25 28 3 73 8
100 11 93 10 150 14 290 20 77 4 141 8 143 9 4 4 553 -4 632 -9z m-252 -307
c39 -1 62 -6 62 -13 0 -7 -10 -12 -21 -13 -33 -3 -39 -14 -42 -78 l-2 -59 60
-4 c117 -6 174 -52 161 -130 -6 -42 -18 -56 -64 -78 -29 -14 -59 -17 -147 -15
-60 2 -125 3 -143 4 -35 0 -39 19 -6 25 10 2 22 7 27 11 4 4 10 75 13 158 l6
152 -34 17 c-28 15 -30 18 -14 24 10 3 32 5 50 4 17 -2 59 -4 94 -5z m-218 -6
c0 -5 -13 -13 -29 -19 l-28 -11 3 -89 c6 -233 7 -233 39 -238 11 -2 21 -8 23
-14 2 -8 -19 -12 -72 -13 -42 -1 -88 -2 -103 -3 -14 0 -28 5 -30 12 -3 7 4 12
16 12 11 0 23 5 27 12 8 13 4 262 -5 321 0 4 -21 7 -46 7 -42 0 -45 -2 -45
-27 -4 -190 -71 -353 -146 -353 -33 0 -54 10 -54 26 0 8 -5 14 -11 14 -6 0 -9
-7 -6 -15 4 -8 3 -16 -1 -19 -12 -7 -86 -17 -242 -31 -30 -3 -70 -8 -87 -10
-24 -4 -33 -1 -33 9 0 8 10 16 23 18 19 3 22 9 21 48 0 25 -4 70 -7 100 -4 30
-10 81 -13 113 -6 54 -9 59 -42 73 -19 8 -33 16 -31 18 2 3 33 7 69 11 36 3
76 8 90 10 22 3 146 16 160 17 31 2 35 -5 38 -53 l2 -51 -41 37 c-40 36 -43
37 -98 31 -31 -3 -57 -5 -58 -6 -1 0 0 -15 2 -32 3 -18 7 -51 9 -73 3 -22 5
-41 6 -42 0 -5 55 5 73 12 10 4 21 20 24 36 7 34 33 39 33 7 1 -13 3 -49 6
-80 7 -65 -2 -73 -28 -27 -16 27 -22 30 -60 27 l-43 -3 3 -48 c7 -92 13 -102
63 -105 66 -4 93 10 119 62 27 56 40 58 40 9 l1 -38 15 28 c11 21 22 27 47 27
18 0 39 -6 45 -12 10 -10 15 -10 22 2 18 27 41 114 47 172 8 80 0 105 -38 113
-45 10 -23 23 46 27 152 8 285 8 285 1z m-917 -71 c10 -15 17 -102 9 -102 -5
0 -23 16 -40 36 -26 29 -37 35 -64 32 -40 -4 -40 -3 -9 -198 22 -134 22 -134
86 -139 5 -1 5 -4 0 -10 -11 -10 -205 -44 -212 -37 -8 7 7 27 17 21 4 -3 13 2
20 10 10 12 10 31 1 88 -6 39 -14 90 -17 112 -4 22 -8 47 -9 55 -2 8 -4 24 -4
35 -2 38 -14 46 -50 34 -25 -9 -38 -23 -52 -57 -23 -52 -34 -47 -43 20 -7 46
-7 46 24 53 17 4 41 8 53 10 50 6 116 17 177 29 86 15 108 17 113 8z m2217
-35 c16 -9 39 -13 50 -10 23 6 24 -4 14 -81 -8 -59 -27 -59 -45 1 -16 50 -50
83 -92 87 -33 4 -67 -26 -67 -59 0 -26 22 -44 107 -90 80 -43 106 -100 75
-165 -32 -66 -151 -87 -239 -42 -22 12 -49 18 -65 15 -25 -5 -26 -4 -18 39 5
23 9 44 9 46 1 1 1 13 1 27 0 41 19 29 44 -29 38 -87 109 -118 162 -73 44 38
27 69 -63 121 -82 46 -105 72 -106 121 -3 105 114 151 233 92z m304 -62 c59
-14 124 -32 143 -41 84 -40 74 -154 -17 -184 -34 -11 -98 -10 -149 2 -9 2 -18
-14 -27 -47 -19 -69 -18 -80 11 -95 49 -26 9 -29 -84 -7 -54 13 -97 29 -99 36
-3 10 1 12 16 9 11 -3 25 -3 31 1 9 6 47 139 65 226 3 11 8 34 11 52 6 26 3
34 -19 48 -25 17 -28 38 -3 30 7 -2 61 -15 121 -30z m-3014 -17 c48 -21 85
-64 104 -121 19 -56 20 -78 6 -129 -28 -101 -163 -168 -276 -137 -101 28 -164
157 -131 265 14 47 78 109 129 126 53 17 122 15 168 -4z m2154 -8 c33 -12 36
-59 6 -78 -21 -13 -19 -23 12 -65 12 -16 14 -16 25 2 10 16 10 23 -3 36 -14
13 -12 15 25 15 22 0 43 -4 46 -10 3 -5 0 -10 -9 -10 -8 0 -26 -14 -41 -31
l-26 -32 22 -23 c12 -13 28 -24 36 -24 7 0 13 -3 13 -8 0 -12 -91 -1 -96 13
-4 9 -14 9 -45 1 -94 -25 -136 65 -53 112 11 6 13 14 6 33 -12 30 -1 60 24 70
26 10 29 10 58 -1z m-2533 -117 c21 -62 12 -66 -39 -22 -27 24 -41 30 -66 26
-41 -6 -74 -15 -85 -21 -5 -3 14 -75 43 -158 l51 -153 33 -3 c17 -2 32 -7 32
-12 0 -15 -193 -71 -204 -60 -7 7 -4 12 11 16 12 3 24 12 27 20 3 7 -16 78
-43 156 -47 142 -48 143 -79 146 -18 2 -32 7 -32 12 0 10 298 110 319 107 8
-1 22 -26 32 -54z m3876 15 c9 -16 10 -22 18 -112 3 -39 7 -84 9 -101 2 -16 7
-59 11 -95 5 -51 13 -71 33 -92 32 -35 25 -35 -93 -1 -57 16 -95 32 -95 40 0
9 9 11 30 6 l30 -6 -1 46 c-1 25 -5 50 -8 55 -7 10 -98 42 -120 42 -9 0 -27
-16 -41 -36 l-24 -36 28 -23 c15 -12 24 -25 20 -27 -13 -7 -154 33 -154 44 0
4 9 8 21 8 36 0 53 16 170 159 83 103 120 141 136 141 12 0 25 -6 30 -12z
m-1587 -341 c14 -3 63 -8 110 -12 83 -6 109 -9 200 -20 165 -21 304 -46 552
-100 157 -34 451 -124 633 -195 130 -50 138 -56 125 -80 -9 -16 -16 -15 -103
20 -289 117 -634 212 -977 270 -36 6 -76 13 -90 15 -84 15 -330 42 -450 51
-41 2 -104 7 -140 9 -79 6 -497 6 -595 0 -211 -13 -399 -31 -550 -55 -33 -5
-73 -12 -90 -14 -352 -56 -710 -154 -1039 -285 -43 -18 -80 -30 -81 -29 -2 2
-5 12 -7 22 -2 16 14 26 91 57 162 66 458 163 594 194 38 8 201 45 222 49 77
17 124 26 150 30 17 2 73 11 125 20 52 8 118 18 145 21 119 14 247 26 335 31
52 4 97 8 99 10 6 5 713 -4 741 -9z"/>
<path d="M3677 1223 c-2 -5 -5 -40 -6 -80 -2 -63 0 -73 18 -82 30 -17 50 -13
76 14 28 27 34 88 12 116 -24 31 -89 52 -100 32z"/>
<path d="M5074 1209 c-3 -5 -14 -43 -23 -84 -20 -82 -21 -79 38 -77 50 3 86
75 63 127 -12 25 -68 50 -78 34z"/>
<path d="M1904 1209 c-59 -17 -75 -108 -39 -221 31 -99 89 -144 151 -116 61
28 65 154 9 272 -15 32 -67 78 -85 75 -3 0 -19 -5 -36 -10z"/>
<path d="M4168 1198 c-3 -7 -1 -24 3 -37 8 -20 12 -21 25 -11 8 8 14 23 12 34
-3 24 -33 34 -40 14z"/>
<path d="M4125 1090 c-9 -29 3 -58 27 -65 36 -12 43 10 13 49 -15 20 -29 36
-31 36 -1 0 -6 -9 -9 -20z"/>
<path d="M5416 983 c-28 -35 -41 -59 -33 -61 6 -2 30 -9 53 -17 l41 -13 -4 72
c-3 39 -6 72 -8 74 -2 2 -24 -23 -49 -55z"/>
<path d="M2628 361 c-36 -67 -38 -69 -85 -75 -26 -4 -61 -9 -77 -12 l-28 -6
55 -57 56 -56 -13 -72 c-7 -40 -8 -73 -4 -73 5 0 38 14 73 30 l65 30 69 -34
69 -35 -5 32 c-21 132 -24 117 35 175 30 29 53 55 51 56 -8 7 -99 26 -122 26
-20 0 -31 13 -61 70 -21 39 -38 70 -39 70 -1 0 -19 -31 -39 -69z"/>
<path d="M3198 363 l-36 -68 -77 -13 -77 -14 53 -54 53 -53 -11 -73 c-5 -40
-8 -75 -6 -77 2 -3 34 10 72 28 l68 33 67 -36 c68 -37 81 -42 72 -28 -2 4 -7
34 -11 66 -3 33 -8 63 -11 67 -2 5 20 34 51 66 44 46 52 59 38 62 -10 2 -44 9
-77 15 -58 12 -59 12 -91 75 -18 34 -35 64 -37 66 -2 3 -21 -25 -40 -62z"/>
<path d="M3769 370 c-18 -34 -39 -65 -48 -69 -14 -8 -94 -22 -128 -24 -21 -1
-15 -10 40 -65 l54 -53 -13 -72 c-6 -40 -10 -74 -8 -76 2 -2 32 11 68 29 70
34 79 34 149 -6 23 -13 46 -24 51 -24 8 0 -1 131 -10 139 -3 3 21 31 52 62
l56 57 -58 12 c-33 6 -68 13 -79 16 -13 2 -31 25 -50 64 -16 34 -32 63 -36 66
-4 2 -22 -23 -40 -56z"/>
<path d="M4334 362 c-22 -37 -44 -67 -49 -68 -61 -5 -135 -18 -135 -23 0 -4
23 -29 51 -56 l50 -50 -6 -54 c-4 -29 -9 -64 -11 -77 -2 -13 -2 -24 1 -24 4 0
36 14 72 32 l65 31 65 -32 c36 -18 68 -30 71 -27 3 3 0 36 -6 73 l-11 68 55
56 56 57 -49 10 c-26 6 -62 14 -79 17 -26 5 -35 16 -60 66 -15 33 -31 62 -35
65 -4 2 -24 -27 -45 -64z"/>
</g>
</svg>
